<?xml version="1.0" encoding="UTF-8" standalone="no"?>
<!DOCTYPE svg PUBLIC "-//W3C//DTD SVG 1.1//EN"
 "http://www.w3.org/Graphics/SVG/1.1/DTD/svg11.dtd">
<!-- Generated by graphviz version 8.1.0 (20230707.0739)
 -->
<!-- Title: G Pages: 1 -->
<svg width="1258pt" height="933pt"
 viewBox="0.00 0.00 1258.45 932.95" xmlns="http://www.w3.org/2000/svg" xmlns:xlink="http://www.w3.org/1999/xlink">
<g id="graph0" class="graph" transform="scale(1 1) rotate(0) translate(21.6 911.35)">
<title>G</title>
<polygon fill="#111111" stroke="none" points="-21.6,21.6 -21.6,-911.35 1236.85,-911.35 1236.85,21.6 -21.6,21.6"/>
<!-- app/DashboardMain.tsx -->
<g id="node1" class="node">
<title>app/DashboardMain.tsx</title>
<path fill="none" stroke="#cfffac" d="M211.33,-23.75C211.33,-23.75 67.92,-23.75 67.92,-23.75 63.96,-23.75 60,-19.79 60,-15.83 60,-15.83 60,-7.92 60,-7.92 60,-3.96 63.96,0 67.92,0 67.92,0 211.33,0 211.33,0 215.29,0 219.25,-3.96 219.25,-7.92 219.25,-7.92 219.25,-15.83 219.25,-15.83 219.25,-19.79 215.29,-23.75 211.33,-23.75"/>
<text text-anchor="middle" x="139.62" y="-6.45" font-family="Arial" font-size="14.00" fill="#cfffac">app/DashboardMain.tsx</text>
</g>
<!-- app/LandingPageFooter.tsx -->
<g id="node2" class="node">
<title>app/LandingPageFooter.tsx</title>
<path fill="none" stroke="#cfffac" d="M539.71,-91.75C539.71,-91.75 374.54,-91.75 374.54,-91.75 370.58,-91.75 366.62,-87.79 366.62,-83.83 366.62,-83.83 366.62,-75.92 366.62,-75.92 366.62,-71.96 370.58,-68 374.54,-68 374.54,-68 539.71,-68 539.71,-68 543.67,-68 547.62,-71.96 547.62,-75.92 547.62,-75.92 547.62,-83.83 547.62,-83.83 547.62,-87.79 543.67,-91.75 539.71,-91.75"/>
<text text-anchor="middle" x="457.12" y="-74.45" font-family="Arial" font-size="14.00" fill="#cfffac">app/LandingPageFooter.tsx</text>
</g>
<!-- app/LandingPageMain.tsx -->
<g id="node3" class="node">
<title>app/LandingPageMain.tsx</title>
<path fill="none" stroke="#cfffac" d="M535.58,-49.75C535.58,-49.75 378.67,-49.75 378.67,-49.75 374.71,-49.75 370.75,-45.79 370.75,-41.83 370.75,-41.83 370.75,-33.92 370.75,-33.92 370.75,-29.96 374.71,-26 378.67,-26 378.67,-26 535.58,-26 535.58,-26 539.54,-26 543.5,-29.96 543.5,-33.92 543.5,-33.92 543.5,-41.83 543.5,-41.83 543.5,-45.79 539.54,-49.75 535.58,-49.75"/>
<text text-anchor="middle" x="457.12" y="-32.45" font-family="Arial" font-size="14.00" fill="#cfffac">app/LandingPageMain.tsx</text>
</g>
<!-- app/api/health.ts -->
<g id="node4" class="node">
<title>app/api/health.ts</title>
<path fill="none" stroke="#cfffac" d="M189.21,-144.75C189.21,-144.75 90.04,-144.75 90.04,-144.75 86.08,-144.75 82.12,-140.79 82.12,-136.83 82.12,-136.83 82.12,-128.92 82.12,-128.92 82.12,-124.96 86.08,-121 90.04,-121 90.04,-121 189.21,-121 189.21,-121 193.17,-121 197.12,-124.96 197.12,-128.92 197.12,-128.92 197.12,-136.83 197.12,-136.83 197.12,-140.79 193.17,-144.75 189.21,-144.75"/>
<text text-anchor="middle" x="139.62" y="-127.45" font-family="Arial" font-size="14.00" fill="#cfffac">app/api/health.ts</text>
</g>
<!-- app/datasets/ContentLayout/DatasetCard.tsx -->
<g id="node5" class="node">
<title>app/datasets/ContentLayout/DatasetCard.tsx</title>
<path fill="none" stroke="#c6c5fe" d="M933.71,-280.75C933.71,-280.75 664.29,-280.75 664.29,-280.75 660.33,-280.75 656.38,-276.79 656.38,-272.83 656.38,-272.83 656.38,-264.92 656.38,-264.92 656.38,-260.96 660.33,-257 664.29,-257 664.29,-257 933.71,-257 933.71,-257 937.67,-257 941.62,-260.96 941.62,-264.92 941.62,-264.92 941.62,-272.83 941.62,-272.83 941.62,-276.79 937.67,-280.75 933.71,-280.75"/>
<text text-anchor="middle" x="799" y="-263.45" font-family="Arial" font-size="14.00" fill="#c6c5fe">app/datasets/ContentLayout/DatasetCard.tsx</text>
</g>
<!-- app/datasets/type.ts -->
<g id="node6" class="node">
<title>app/datasets/type.ts</title>
<path fill="none" stroke="#cfffac" d="M1167.58,-217.75C1167.58,-217.75 1046.67,-217.75 1046.67,-217.75 1042.71,-217.75 1038.75,-213.79 1038.75,-209.83 1038.75,-209.83 1038.75,-201.92 1038.75,-201.92 1038.75,-197.96 1042.71,-194 1046.67,-194 1046.67,-194 1167.58,-194 1167.58,-194 1171.54,-194 1175.5,-197.96 1175.5,-201.92 1175.5,-201.92 1175.5,-209.83 1175.5,-209.83 1175.5,-213.79 1171.54,-217.75 1167.58,-217.75"/>
<text text-anchor="middle" x="1107.12" y="-200.45" font-family="Arial" font-size="14.00" fill="#cfffac">app/datasets/type.ts</text>
</g>
<!-- app/datasets/ContentLayout/DatasetCard.tsx&#45;&gt;app/datasets/type.ts -->
<g id="edge1" class="edge">
<title>app/datasets/ContentLayout/DatasetCard.tsx&#45;&gt;app/datasets/type.ts</title>
<path fill="none" stroke="#757575" d="M913.94,-256.52C930.47,-254.06 947.22,-251.18 963,-247.88 995.81,-240.99 1032.04,-230.33 1059.84,-221.47"/>
<polygon fill="#757575" stroke="#757575" points="1060.61,-224.58 1069.05,-218.17 1058.46,-217.91 1060.61,-224.58"/>
</g>
<!-- app/datasets/ContentLayout/DatasetsHeader.tsx -->
<g id="node7" class="node">
<title>app/datasets/ContentLayout/DatasetsHeader.tsx</title>
<path fill="none" stroke="#cfffac" d="M944.21,-238.75C944.21,-238.75 653.79,-238.75 653.79,-238.75 649.83,-238.75 645.88,-234.79 645.88,-230.83 645.88,-230.83 645.88,-222.92 645.88,-222.92 645.88,-218.96 649.83,-215 653.79,-215 653.79,-215 944.21,-215 944.21,-215 948.17,-215 952.12,-218.96 952.12,-222.92 952.12,-222.92 952.12,-230.83 952.12,-230.83 952.12,-234.79 948.17,-238.75 944.21,-238.75"/>
<text text-anchor="middle" x="799" y="-221.45" font-family="Arial" font-size="14.00" fill="#cfffac">app/datasets/ContentLayout/DatasetsHeader.tsx</text>
</g>
<!-- app/datasets/ContentLayout/DatasetsList.tsx -->
<g id="node8" class="node">
<title>app/datasets/ContentLayout/DatasetsList.tsx</title>
<path fill="none" stroke="#c6c5fe" d="M591.08,-217.75C591.08,-217.75 323.17,-217.75 323.17,-217.75 319.21,-217.75 315.25,-213.79 315.25,-209.83 315.25,-209.83 315.25,-201.92 315.25,-201.92 315.25,-197.96 319.21,-194 323.17,-194 323.17,-194 591.08,-194 591.08,-194 595.04,-194 599,-197.96 599,-201.92 599,-201.92 599,-209.83 599,-209.83 599,-213.79 595.04,-217.75 591.08,-217.75"/>
<text text-anchor="middle" x="457.12" y="-200.45" font-family="Arial" font-size="14.00" fill="#c6c5fe">app/datasets/ContentLayout/DatasetsList.tsx</text>
</g>
<!-- app/datasets/ContentLayout/DatasetsList.tsx&#45;&gt;app/datasets/ContentLayout/DatasetCard.tsx -->
<g id="edge2" class="edge">
<title>app/datasets/ContentLayout/DatasetsList.tsx&#45;&gt;app/datasets/ContentLayout/DatasetCard.tsx</title>
<path fill="none" stroke="#757575" d="M504.02,-218.17C539.57,-227.36 590.14,-239.68 635,-247.88 649.12,-250.45 663.98,-252.83 678.75,-254.98"/>
<polygon fill="#757575" stroke="#757575" points="678.08,-258.56 688.47,-256.51 679.06,-251.63 678.08,-258.56"/>
</g>
<!-- app/datasets/ContentLayout/DatasetsList.tsx&#45;&gt;app/datasets/ContentLayout/DatasetsHeader.tsx -->
<g id="edge3" class="edge">
<title>app/datasets/ContentLayout/DatasetsList.tsx&#45;&gt;app/datasets/ContentLayout/DatasetsHeader.tsx</title>
<path fill="none" stroke="#757575" d="M599.31,-214.6C610.97,-215.32 622.82,-216.05 634.62,-216.78"/>
<polygon fill="#757575" stroke="#757575" points="634.24,-220.33 644.44,-217.45 634.68,-213.34 634.24,-220.33"/>
</g>
<!-- app/datasets/ContentLayout/DatasetsPagination.tsx -->
<g id="node9" class="node">
<title>app/datasets/ContentLayout/DatasetsPagination.tsx</title>
<path fill="none" stroke="#cfffac" d="M954.33,-196.75C954.33,-196.75 643.67,-196.75 643.67,-196.75 639.71,-196.75 635.75,-192.79 635.75,-188.83 635.75,-188.83 635.75,-180.92 635.75,-180.92 635.75,-176.96 639.71,-173 643.67,-173 643.67,-173 954.33,-173 954.33,-173 958.29,-173 962.25,-176.96 962.25,-180.92 962.25,-180.92 962.25,-188.83 962.25,-188.83 962.25,-192.79 958.29,-196.75 954.33,-196.75"/>
<text text-anchor="middle" x="799" y="-179.45" font-family="Arial" font-size="14.00" fill="#cfffac">app/datasets/ContentLayout/DatasetsPagination.tsx</text>
</g>
<!-- app/datasets/ContentLayout/DatasetsList.tsx&#45;&gt;app/datasets/ContentLayout/DatasetsPagination.tsx -->
<g id="edge4" class="edge">
<title>app/datasets/ContentLayout/DatasetsList.tsx&#45;&gt;app/datasets/ContentLayout/DatasetsPagination.tsx</title>
<path fill="none" stroke="#757575" d="M599.31,-197.15C607.71,-196.63 616.21,-196.11 624.71,-195.58"/>
<polygon fill="#757575" stroke="#757575" points="624.72,-199.03 634.49,-194.92 624.29,-192.04 624.72,-199.03"/>
</g>
<!-- app/datasets/const.ts -->
<g id="node10" class="node">
<title>app/datasets/const.ts</title>
<path fill="none" stroke="#c6c5fe" d="M862.83,-154.75C862.83,-154.75 735.17,-154.75 735.17,-154.75 731.21,-154.75 727.25,-150.79 727.25,-146.83 727.25,-146.83 727.25,-138.92 727.25,-138.92 727.25,-134.96 731.21,-131 735.17,-131 735.17,-131 862.83,-131 862.83,-131 866.79,-131 870.75,-134.96 870.75,-138.92 870.75,-138.92 870.75,-146.83 870.75,-146.83 870.75,-150.79 866.79,-154.75 862.83,-154.75"/>
<text text-anchor="middle" x="799" y="-137.45" font-family="Arial" font-size="14.00" fill="#c6c5fe">app/datasets/const.ts</text>
</g>
<!-- app/datasets/ContentLayout/DatasetsList.tsx&#45;&gt;app/datasets/const.ts -->
<g id="edge5" class="edge">
<title>app/datasets/ContentLayout/DatasetsList.tsx&#45;&gt;app/datasets/const.ts</title>
<path fill="none" stroke="#757575" d="M504.02,-193.58C539.57,-184.39 590.14,-172.07 635,-163.88 661.4,-159.05 690.4,-154.94 716.52,-151.67"/>
<polygon fill="#757575" stroke="#757575" points="716.65,-155.06 726.15,-150.36 715.79,-148.11 716.65,-155.06"/>
</g>
<!-- app/datasets/const.ts&#45;&gt;app/datasets/type.ts -->
<g id="edge10" class="edge">
<title>app/datasets/const.ts&#45;&gt;app/datasets/type.ts</title>
<path fill="none" stroke="#757575" d="M871.01,-149.57C899.74,-152.91 933.12,-157.61 963,-163.88 995.81,-170.76 1032.04,-181.42 1059.84,-190.28"/>
<polygon fill="#757575" stroke="#757575" points="1058.46,-193.84 1069.05,-193.58 1060.61,-187.17 1058.46,-193.84"/>
</g>
<!-- app/datasets/ContentLayout/index.tsx -->
<g id="node11" class="node">
<title>app/datasets/ContentLayout/index.tsx</title>
<path fill="none" stroke="#c6c5fe" d="M252.58,-217.75C252.58,-217.75 26.67,-217.75 26.67,-217.75 22.71,-217.75 18.75,-213.79 18.75,-209.83 18.75,-209.83 18.75,-201.92 18.75,-201.92 18.75,-197.96 22.71,-194 26.67,-194 26.67,-194 252.58,-194 252.58,-194 256.54,-194 260.5,-197.96 260.5,-201.92 260.5,-201.92 260.5,-209.83 260.5,-209.83 260.5,-213.79 256.54,-217.75 252.58,-217.75"/>
<text text-anchor="middle" x="139.62" y="-200.45" font-family="Arial" font-size="14.00" fill="#c6c5fe">app/datasets/ContentLayout/index.tsx</text>
</g>
<!-- app/datasets/ContentLayout/index.tsx&#45;&gt;app/datasets/ContentLayout/DatasetsList.tsx -->
<g id="edge6" class="edge">
<title>app/datasets/ContentLayout/index.tsx&#45;&gt;app/datasets/ContentLayout/DatasetsList.tsx</title>
<path fill="none" stroke="#757575" d="M260.8,-205.88C275.03,-205.88 289.68,-205.88 304.27,-205.88"/>
<polygon fill="#757575" stroke="#757575" points="303.87,-209.38 313.87,-205.88 303.87,-202.38 303.87,-209.38"/>
</g>
<!-- app/datasets/TabsLayout/TabLanguages.tsx -->
<g id="node12" class="node">
<title>app/datasets/TabsLayout/TabLanguages.tsx</title>
<path fill="none" stroke="#cfffac" d="M271.33,-259.75C271.33,-259.75 7.92,-259.75 7.92,-259.75 3.96,-259.75 0,-255.79 0,-251.83 0,-251.83 0,-243.92 0,-243.92 0,-239.96 3.96,-236 7.92,-236 7.92,-236 271.33,-236 271.33,-236 275.29,-236 279.25,-239.96 279.25,-243.92 279.25,-243.92 279.25,-251.83 279.25,-251.83 279.25,-255.79 275.29,-259.75 271.33,-259.75"/>
<text text-anchor="middle" x="139.62" y="-242.45" font-family="Arial" font-size="14.00" fill="#cfffac">app/datasets/TabsLayout/TabLanguages.tsx</text>
</g>
<!-- app/datasets/TabsLayout/TabLicenses.tsx -->
<g id="node13" class="node">
<title>app/datasets/TabsLayout/TabLicenses.tsx</title>
<path fill="none" stroke="#cfffac" d="M264.58,-301.75C264.58,-301.75 14.67,-301.75 14.67,-301.75 10.71,-301.75 6.75,-297.79 6.75,-293.83 6.75,-293.83 6.75,-285.92 6.75,-285.92 6.75,-281.96 10.71,-278 14.67,-278 14.67,-278 264.58,-278 264.58,-278 268.54,-278 272.5,-281.96 272.5,-285.92 272.5,-285.92 272.5,-293.83 272.5,-293.83 272.5,-297.79 268.54,-301.75 264.58,-301.75"/>
<text text-anchor="middle" x="139.62" y="-284.45" font-family="Arial" font-size="14.00" fill="#cfffac">app/datasets/TabsLayout/TabLicenses.tsx</text>
</g>
<!-- app/datasets/TabsLayout/TabOther.tsx -->
<g id="node14" class="node">
<title>app/datasets/TabsLayout/TabOther.tsx</title>
<path fill="none" stroke="#cfffac" d="M254.83,-343.75C254.83,-343.75 24.42,-343.75 24.42,-343.75 20.46,-343.75 16.5,-339.79 16.5,-335.83 16.5,-335.83 16.5,-327.92 16.5,-327.92 16.5,-323.96 20.46,-320 24.42,-320 24.42,-320 254.83,-320 254.83,-320 258.79,-320 262.75,-323.96 262.75,-327.92 262.75,-327.92 262.75,-335.83 262.75,-335.83 262.75,-339.79 258.79,-343.75 254.83,-343.75"/>
<text text-anchor="middle" x="139.62" y="-326.45" font-family="Arial" font-size="14.00" fill="#cfffac">app/datasets/TabsLayout/TabOther.tsx</text>
</g>
<!-- app/datasets/TabsLayout/TabSizes.tsx -->
<g id="node15" class="node">
<title>app/datasets/TabsLayout/TabSizes.tsx</title>
<path fill="none" stroke="#cfffac" d="M254.46,-385.75C254.46,-385.75 24.79,-385.75 24.79,-385.75 20.83,-385.75 16.88,-381.79 16.88,-377.83 16.88,-377.83 16.88,-369.92 16.88,-369.92 16.88,-365.96 20.83,-362 24.79,-362 24.79,-362 254.46,-362 254.46,-362 258.42,-362 262.38,-365.96 262.38,-369.92 262.38,-369.92 262.38,-377.83 262.38,-377.83 262.38,-381.79 258.42,-385.75 254.46,-385.75"/>
<text text-anchor="middle" x="139.62" y="-368.45" font-family="Arial" font-size="14.00" fill="#cfffac">app/datasets/TabsLayout/TabSizes.tsx</text>
</g>
<!-- app/datasets/TabsLayout/TabSubTasks.tsx -->
<g id="node16" class="node">
<title>app/datasets/TabsLayout/TabSubTasks.tsx</title>
<path fill="none" stroke="#cfffac" d="M267.21,-427.75C267.21,-427.75 12.04,-427.75 12.04,-427.75 8.08,-427.75 4.12,-423.79 4.12,-419.83 4.12,-419.83 4.12,-411.92 4.12,-411.92 4.12,-407.96 8.08,-404 12.04,-404 12.04,-404 267.21,-404 267.21,-404 271.17,-404 275.12,-407.96 275.12,-411.92 275.12,-411.92 275.12,-419.83 275.12,-419.83 275.12,-423.79 271.17,-427.75 267.21,-427.75"/>
<text text-anchor="middle" x="139.62" y="-410.45" font-family="Arial" font-size="14.00" fill="#cfffac">app/datasets/TabsLayout/TabSubTasks.tsx</text>
</g>
<!-- app/datasets/TabsLayout/TabTasks.tsx -->
<g id="node17" class="node">
<title>app/datasets/TabsLayout/TabTasks.tsx</title>
<path fill="none" stroke="#c6c5fe" d="M914.58,-112.75C914.58,-112.75 683.42,-112.75 683.42,-112.75 679.46,-112.75 675.5,-108.79 675.5,-104.83 675.5,-104.83 675.5,-96.92 675.5,-96.92 675.5,-92.96 679.46,-89 683.42,-89 683.42,-89 914.58,-89 914.58,-89 918.54,-89 922.5,-92.96 922.5,-96.92 922.5,-96.92 922.5,-104.83 922.5,-104.83 922.5,-108.79 918.54,-112.75 914.58,-112.75"/>
<text text-anchor="middle" x="799" y="-95.45" font-family="Arial" font-size="14.00" fill="#c6c5fe">app/datasets/TabsLayout/TabTasks.tsx</text>
</g>
<!-- ui/svgs/tasks.tsx -->
<g id="node18" class="node">
<title>ui/svgs/tasks.tsx</title>
<path fill="none" stroke="#cfffac" d="M1156.33,-112.75C1156.33,-112.75 1057.92,-112.75 1057.92,-112.75 1053.96,-112.75 1050,-108.79 1050,-104.83 1050,-104.83 1050,-96.92 1050,-96.92 1050,-92.96 1053.96,-89 1057.92,-89 1057.92,-89 1156.33,-89 1156.33,-89 1160.29,-89 1164.25,-92.96 1164.25,-96.92 1164.25,-96.92 1164.25,-104.83 1164.25,-104.83 1164.25,-108.79 1160.29,-112.75 1156.33,-112.75"/>
<text text-anchor="middle" x="1107.12" y="-95.45" font-family="Arial" font-size="14.00" fill="#cfffac">ui/svgs/tasks.tsx</text>
</g>
<!-- app/datasets/TabsLayout/TabTasks.tsx&#45;&gt;ui/svgs/tasks.tsx -->
<g id="edge7" class="edge">
<title>app/datasets/TabsLayout/TabTasks.tsx&#45;&gt;ui/svgs/tasks.tsx</title>
<path fill="none" stroke="#757575" d="M922.75,-100.88C962.37,-100.88 1004.82,-100.88 1038.89,-100.88"/>
<polygon fill="#757575" stroke="#757575" points="1038.64,-104.38 1048.64,-100.88 1038.64,-97.38 1038.64,-104.38"/>
</g>
<!-- app/datasets/TabsLayout/index.tsx -->
<g id="node19" class="node">
<title>app/datasets/TabsLayout/index.tsx</title>
<path fill="none" stroke="#c6c5fe" d="M560.71,-133.75C560.71,-133.75 353.54,-133.75 353.54,-133.75 349.58,-133.75 345.62,-129.79 345.62,-125.83 345.62,-125.83 345.62,-117.92 345.62,-117.92 345.62,-113.96 349.58,-110 353.54,-110 353.54,-110 560.71,-110 560.71,-110 564.67,-110 568.62,-113.96 568.62,-117.92 568.62,-117.92 568.62,-125.83 568.62,-125.83 568.62,-129.79 564.67,-133.75 560.71,-133.75"/>
<text text-anchor="middle" x="457.12" y="-116.45" font-family="Arial" font-size="14.00" fill="#c6c5fe">app/datasets/TabsLayout/index.tsx</text>
</g>
<!-- app/datasets/TabsLayout/index.tsx&#45;&gt;app/datasets/const.ts -->
<g id="edge9" class="edge">
<title>app/datasets/TabsLayout/index.tsx&#45;&gt;app/datasets/const.ts</title>
<path fill="none" stroke="#757575" d="M568.94,-128.72C616.8,-131.68 671.81,-135.08 715.92,-137.8"/>
<polygon fill="#757575" stroke="#757575" points="715.69,-141.36 725.89,-138.48 716.13,-134.37 715.69,-141.36"/>
</g>
<!-- app/datasets/TabsLayout/index.tsx&#45;&gt;app/datasets/TabsLayout/TabTasks.tsx -->
<g id="edge8" class="edge">
<title>app/datasets/TabsLayout/index.tsx&#45;&gt;app/datasets/TabsLayout/TabTasks.tsx</title>
<path fill="none" stroke="#757575" d="M568.94,-115.03C599.49,-113.14 632.94,-111.07 664.62,-109.12"/>
<polygon fill="#757575" stroke="#757575" points="664.52,-112.57 674.29,-108.46 664.09,-105.58 664.52,-112.57"/>
</g>
<!-- app/datasets/page.tsx -->
<g id="node20" class="node">
<title>app/datasets/page.tsx</title>
<path fill="none" stroke="#cfffac" d="M205.71,-469.75C205.71,-469.75 73.54,-469.75 73.54,-469.75 69.58,-469.75 65.62,-465.79 65.62,-461.83 65.62,-461.83 65.62,-453.92 65.62,-453.92 65.62,-449.96 69.58,-446 73.54,-446 73.54,-446 205.71,-446 205.71,-446 209.67,-446 213.62,-449.96 213.62,-453.92 213.62,-453.92 213.62,-461.83 213.62,-461.83 213.62,-465.79 209.67,-469.75 205.71,-469.75"/>
<text text-anchor="middle" x="139.62" y="-452.45" font-family="Arial" font-size="14.00" fill="#cfffac">app/datasets/page.tsx</text>
</g>
<!-- app/layout.tsx -->
<g id="node21" class="node">
<title>app/layout.tsx</title>
<path fill="none" stroke="#c6c5fe" d="M181.33,-511.75C181.33,-511.75 97.92,-511.75 97.92,-511.75 93.96,-511.75 90,-507.79 90,-503.83 90,-503.83 90,-495.92 90,-495.92 90,-491.96 93.96,-488 97.92,-488 97.92,-488 181.33,-488 181.33,-488 185.29,-488 189.25,-491.96 189.25,-495.92 189.25,-495.92 189.25,-503.83 189.25,-503.83 189.25,-507.79 185.29,-511.75 181.33,-511.75"/>
<text text-anchor="middle" x="139.62" y="-494.45" font-family="Arial" font-size="14.00" fill="#c6c5fe">app/layout.tsx</text>
</g>
<!-- styles/global&#45;stylesheet.css -->
<g id="node22" class="node">
<title>styles/global&#45;stylesheet.css</title>
<path fill="none" stroke="#cfffac" d="M538.96,-574.75C538.96,-574.75 375.29,-574.75 375.29,-574.75 371.33,-574.75 367.38,-570.79 367.38,-566.83 367.38,-566.83 367.38,-558.92 367.38,-558.92 367.38,-554.96 371.33,-551 375.29,-551 375.29,-551 538.96,-551 538.96,-551 542.92,-551 546.88,-554.96 546.88,-558.92 546.88,-558.92 546.88,-566.83 546.88,-566.83 546.88,-570.79 542.92,-574.75 538.96,-574.75"/>
<text text-anchor="middle" x="457.12" y="-557.45" font-family="Arial" font-size="14.00" fill="#cfffac">styles/global&#45;stylesheet.css</text>
</g>
<!-- app/layout.tsx&#45;&gt;styles/global&#45;stylesheet.css -->
<g id="edge11" class="edge">
<title>app/layout.tsx&#45;&gt;styles/global&#45;stylesheet.css</title>
<path fill="none" stroke="#757575" d="M189.51,-502.76C216.56,-505.46 250.44,-510.71 279.25,-520.88 296.72,-527.04 297.77,-535.73 315.25,-541.88 328.26,-546.45 342.29,-550.03 356.28,-552.83"/>
<polygon fill="#757575" stroke="#757575" points="355.48,-556.42 365.95,-554.82 356.76,-549.54 355.48,-556.42"/>
</g>
<!-- styles/google&#45;font&#45;IBM&#45;Plex&#45;Mono.css -->
<g id="node23" class="node">
<title>styles/google&#45;font&#45;IBM&#45;Plex&#45;Mono.css</title>
<path fill="none" stroke="#cfffac" d="M571.58,-532.75C571.58,-532.75 342.67,-532.75 342.67,-532.75 338.71,-532.75 334.75,-528.79 334.75,-524.83 334.75,-524.83 334.75,-516.92 334.75,-516.92 334.75,-512.96 338.71,-509 342.67,-509 342.67,-509 571.58,-509 571.58,-509 575.54,-509 579.5,-512.96 579.5,-516.92 579.5,-516.92 579.5,-524.83 579.5,-524.83 579.5,-528.79 575.54,-532.75 571.58,-532.75"/>
<text text-anchor="middle" x="457.12" y="-515.45" font-family="Arial" font-size="14.00" fill="#cfffac">styles/google&#45;font&#45;IBM&#45;Plex&#45;Mono.css</text>
</g>
<!-- app/layout.tsx&#45;&gt;styles/google&#45;font&#45;IBM&#45;Plex&#45;Mono.css -->
<g id="edge12" class="edge">
<title>app/layout.tsx&#45;&gt;styles/google&#45;font&#45;IBM&#45;Plex&#45;Mono.css</title>
<path fill="none" stroke="#757575" d="M189.58,-503.13C225.54,-505.53 276.21,-508.9 323.73,-512.06"/>
<polygon fill="#757575" stroke="#757575" points="323.24,-515.6 333.45,-512.78 323.71,-508.62 323.24,-515.6"/>
</g>
<!-- styles/google&#45;font&#45;Source&#45;Sans&#45;Pro.css -->
<g id="node24" class="node">
<title>styles/google&#45;font&#45;Source&#45;Sans&#45;Pro.css</title>
<path fill="none" stroke="#cfffac" d="M576.08,-490.75C576.08,-490.75 338.17,-490.75 338.17,-490.75 334.21,-490.75 330.25,-486.79 330.25,-482.83 330.25,-482.83 330.25,-474.92 330.25,-474.92 330.25,-470.96 334.21,-467 338.17,-467 338.17,-467 576.08,-467 576.08,-467 580.04,-467 584,-470.96 584,-474.92 584,-474.92 584,-482.83 584,-482.83 584,-486.79 580.04,-490.75 576.08,-490.75"/>
<text text-anchor="middle" x="457.12" y="-473.45" font-family="Arial" font-size="14.00" fill="#cfffac">styles/google&#45;font&#45;Source&#45;Sans&#45;Pro.css</text>
</g>
<!-- app/layout.tsx&#45;&gt;styles/google&#45;font&#45;Source&#45;Sans&#45;Pro.css -->
<g id="edge13" class="edge">
<title>app/layout.tsx&#45;&gt;styles/google&#45;font&#45;Source&#45;Sans&#45;Pro.css</title>
<path fill="none" stroke="#757575" d="M189.58,-496.62C224.42,-494.3 273.07,-491.06 319.29,-487.98"/>
<polygon fill="#757575" stroke="#757575" points="319.29,-491.42 329.04,-487.27 318.83,-484.44 319.29,-491.42"/>
</g>
<!-- ui/blocks/NavHeader/index.client.tsx -->
<g id="node25" class="node">
<title>ui/blocks/NavHeader/index.client.tsx</title>
<path fill="none" stroke="#c6c5fe" d="M565.58,-448.75C565.58,-448.75 348.67,-448.75 348.67,-448.75 344.71,-448.75 340.75,-444.79 340.75,-440.83 340.75,-440.83 340.75,-432.92 340.75,-432.92 340.75,-428.96 344.71,-425 348.67,-425 348.67,-425 565.58,-425 565.58,-425 569.54,-425 573.5,-428.96 573.5,-432.92 573.5,-432.92 573.5,-440.83 573.5,-440.83 573.5,-444.79 569.54,-448.75 565.58,-448.75"/>
<text text-anchor="middle" x="457.12" y="-431.45" font-family="Arial" font-size="14.00" fill="#c6c5fe">ui/blocks/NavHeader/index.client.tsx</text>
</g>
<!-- app/layout.tsx&#45;&gt;ui/blocks/NavHeader/index.client.tsx -->
<g id="edge14" class="edge">
<title>app/layout.tsx&#45;&gt;ui/blocks/NavHeader/index.client.tsx</title>
<path fill="none" stroke="#757575" d="M189.51,-496.99C216.56,-494.29 250.44,-489.04 279.25,-478.88 296.72,-472.71 297.77,-464.02 315.25,-457.88 321.6,-455.64 328.2,-453.65 334.91,-451.86"/>
<polygon fill="#757575" stroke="#757575" points="335.68,-455.03 344.55,-449.23 334,-448.24 335.68,-455.03"/>
</g>
<!-- ui/blocks/NavHeader/AllNavInSmallScreen.client.tsx -->
<g id="node33" class="node">
<title>ui/blocks/NavHeader/AllNavInSmallScreen.client.tsx</title>
<path fill="none" stroke="#cfffac" d="M955.08,-510.75C955.08,-510.75 642.92,-510.75 642.92,-510.75 638.96,-510.75 635,-506.79 635,-502.83 635,-502.83 635,-494.92 635,-494.92 635,-490.96 638.96,-487 642.92,-487 642.92,-487 955.08,-487 955.08,-487 959.04,-487 963,-490.96 963,-494.92 963,-494.92 963,-502.83 963,-502.83 963,-506.79 959.04,-510.75 955.08,-510.75"/>
<text text-anchor="middle" x="799" y="-493.45" font-family="Arial" font-size="14.00" fill="#cfffac">ui/blocks/NavHeader/AllNavInSmallScreen.client.tsx</text>
</g>
<!-- ui/blocks/NavHeader/index.client.tsx&#45;&gt;ui/blocks/NavHeader/AllNavInSmallScreen.client.tsx -->
<g id="edge18" class="edge">
<title>ui/blocks/NavHeader/index.client.tsx&#45;&gt;ui/blocks/NavHeader/AllNavInSmallScreen.client.tsx</title>
<path fill="none" stroke="#757575" d="M567.5,-449.19C578.27,-451.59 588.93,-454.45 599,-457.88 616.33,-463.76 617.61,-472.16 635,-477.88 642.09,-480.21 649.44,-482.28 656.91,-484.13"/>
<polygon fill="#757575" stroke="#757575" points="656.02,-487.74 666.55,-486.59 657.59,-480.92 656.02,-487.74"/>
</g>
<!-- ui/blocks/NavHeader/MoreNav.client.tsx -->
<g id="node34" class="node">
<title>ui/blocks/NavHeader/MoreNav.client.tsx</title>
<path fill="none" stroke="#c6c5fe" d="M918.71,-468.75C918.71,-468.75 679.29,-468.75 679.29,-468.75 675.33,-468.75 671.38,-464.79 671.38,-460.83 671.38,-460.83 671.38,-452.92 671.38,-452.92 671.38,-448.96 675.33,-445 679.29,-445 679.29,-445 918.71,-445 918.71,-445 922.67,-445 926.62,-448.96 926.62,-452.92 926.62,-452.92 926.62,-460.83 926.62,-460.83 926.62,-464.79 922.67,-468.75 918.71,-468.75"/>
<text text-anchor="middle" x="799" y="-451.45" font-family="Arial" font-size="14.00" fill="#c6c5fe">ui/blocks/NavHeader/MoreNav.client.tsx</text>
</g>
<!-- ui/blocks/NavHeader/index.client.tsx&#45;&gt;ui/blocks/NavHeader/MoreNav.client.tsx -->
<g id="edge19" class="edge">
<title>ui/blocks/NavHeader/index.client.tsx&#45;&gt;ui/blocks/NavHeader/MoreNav.client.tsx</title>
<path fill="none" stroke="#757575" d="M573.67,-443.67C601.48,-445.31 631.47,-447.08 660.19,-448.77"/>
<polygon fill="#757575" stroke="#757575" points="659.93,-452.32 670.12,-449.41 660.35,-445.33 659.93,-452.32"/>
</g>
<!-- ui/blocks/NavHeader/constant.tsx -->
<g id="node35" class="node">
<title>ui/blocks/NavHeader/constant.tsx</title>
<path fill="none" stroke="#cfffac" d="M1207.33,-448.75C1207.33,-448.75 1006.92,-448.75 1006.92,-448.75 1002.96,-448.75 999,-444.79 999,-440.83 999,-440.83 999,-432.92 999,-432.92 999,-428.96 1002.96,-425 1006.92,-425 1006.92,-425 1207.33,-425 1207.33,-425 1211.29,-425 1215.25,-428.96 1215.25,-432.92 1215.25,-432.92 1215.25,-440.83 1215.25,-440.83 1215.25,-444.79 1211.29,-448.75 1207.33,-448.75"/>
<text text-anchor="middle" x="1107.12" y="-431.45" font-family="Arial" font-size="14.00" fill="#cfffac">ui/blocks/NavHeader/constant.tsx</text>
</g>
<!-- ui/blocks/NavHeader/index.client.tsx&#45;&gt;ui/blocks/NavHeader/constant.tsx -->
<g id="edge21" class="edge">
<title>ui/blocks/NavHeader/index.client.tsx&#45;&gt;ui/blocks/NavHeader/constant.tsx</title>
<path fill="none" stroke="#757575" d="M573.72,-436.13C594.14,-436.02 615.19,-435.93 635,-435.88 780.78,-435.46 817.22,-435.37 963,-435.88 971.03,-435.9 979.32,-435.94 987.67,-435.98"/>
<polygon fill="#757575" stroke="#757575" points="987.65,-439.49 997.67,-436.04 987.69,-432.49 987.65,-439.49"/>
</g>
<!-- ui/blocks/NavHeader/SearchBar.client.tsx -->
<g id="node36" class="node">
<title>ui/blocks/NavHeader/SearchBar.client.tsx</title>
<path fill="none" stroke="#cfffac" d="M922.83,-388.75C922.83,-388.75 675.17,-388.75 675.17,-388.75 671.21,-388.75 667.25,-384.79 667.25,-380.83 667.25,-380.83 667.25,-372.92 667.25,-372.92 667.25,-368.96 671.21,-365 675.17,-365 675.17,-365 922.83,-365 922.83,-365 926.79,-365 930.75,-368.96 930.75,-372.92 930.75,-372.92 930.75,-380.83 930.75,-380.83 930.75,-384.79 926.79,-388.75 922.83,-388.75"/>
<text text-anchor="middle" x="799" y="-371.45" font-family="Arial" font-size="14.00" fill="#cfffac">ui/blocks/NavHeader/SearchBar.client.tsx</text>
</g>
<!-- ui/blocks/NavHeader/index.client.tsx&#45;&gt;ui/blocks/NavHeader/SearchBar.client.tsx -->
<g id="edge20" class="edge">
<title>ui/blocks/NavHeader/index.client.tsx&#45;&gt;ui/blocks/NavHeader/SearchBar.client.tsx</title>
<path fill="none" stroke="#757575" d="M519.84,-424.51C553.78,-417.84 596.66,-409.62 635,-402.88 658.25,-398.79 683.42,-394.64 706.86,-390.89"/>
<polygon fill="#757575" stroke="#757575" points="707.17,-394.23 716.5,-389.2 706.07,-387.31 707.17,-394.23"/>
</g>
<!-- app/page.tsx -->
<g id="node26" class="node">
<title>app/page.tsx</title>
<path fill="none" stroke="#c6c5fe" d="M178.33,-65.75C178.33,-65.75 100.92,-65.75 100.92,-65.75 96.96,-65.75 93,-61.79 93,-57.83 93,-57.83 93,-49.92 93,-49.92 93,-45.96 96.96,-42 100.92,-42 100.92,-42 178.33,-42 178.33,-42 182.29,-42 186.25,-45.96 186.25,-49.92 186.25,-49.92 186.25,-57.83 186.25,-57.83 186.25,-61.79 182.29,-65.75 178.33,-65.75"/>
<text text-anchor="middle" x="139.62" y="-48.45" font-family="Arial" font-size="14.00" fill="#c6c5fe">app/page.tsx</text>
</g>
<!-- app/page.tsx&#45;&gt;app/LandingPageFooter.tsx -->
<g id="edge15" class="edge">
<title>app/page.tsx&#45;&gt;app/LandingPageFooter.tsx</title>
<path fill="none" stroke="#757575" d="M186.5,-57.66C230.57,-61.29 298.65,-66.9 355.37,-71.57"/>
<polygon fill="#757575" stroke="#757575" points="354.93,-75.13 365.18,-72.46 355.51,-68.15 354.93,-75.13"/>
</g>
<!-- app/page.tsx&#45;&gt;app/LandingPageMain.tsx -->
<g id="edge16" class="edge">
<title>app/page.tsx&#45;&gt;app/LandingPageMain.tsx</title>
<path fill="none" stroke="#757575" d="M186.5,-51.55C231.62,-49.26 301.89,-45.7 359.38,-42.78"/>
<polygon fill="#757575" stroke="#757575" points="359.52,-46.23 369.33,-42.23 359.16,-39.24 359.52,-46.23"/>
</g>
<!-- app/preload&#45;resources.tsx -->
<g id="node27" class="node">
<title>app/preload&#45;resources.tsx</title>
<path fill="none" stroke="#cfffac" d="M217.71,-553.75C217.71,-553.75 61.54,-553.75 61.54,-553.75 57.58,-553.75 53.62,-549.79 53.62,-545.83 53.62,-545.83 53.62,-537.92 53.62,-537.92 53.62,-533.96 57.58,-530 61.54,-530 61.54,-530 217.71,-530 217.71,-530 221.67,-530 225.62,-533.96 225.62,-537.92 225.62,-537.92 225.62,-545.83 225.62,-545.83 225.62,-549.79 221.67,-553.75 217.71,-553.75"/>
<text text-anchor="middle" x="139.62" y="-536.45" font-family="Arial" font-size="14.00" fill="#cfffac">app/preload&#45;resources.tsx</text>
</g>
<!-- lp&#45;items.tsx -->
<g id="node28" class="node">
<title>lp&#45;items.tsx</title>
<path fill="none" stroke="#cfffac" d="M174.21,-595.75C174.21,-595.75 105.04,-595.75 105.04,-595.75 101.08,-595.75 97.12,-591.79 97.12,-587.83 97.12,-587.83 97.12,-579.92 97.12,-579.92 97.12,-575.96 101.08,-572 105.04,-572 105.04,-572 174.21,-572 174.21,-572 178.17,-572 182.12,-575.96 182.12,-579.92 182.12,-579.92 182.12,-587.83 182.12,-587.83 182.12,-591.79 178.17,-595.75 174.21,-595.75"/>
<text text-anchor="middle" x="139.62" y="-578.45" font-family="Arial" font-size="14.00" fill="#cfffac">lp&#45;items.tsx</text>
</g>
<!-- public/js/script.js -->
<g id="node29" class="node">
<title>public/js/script.js</title>
<path fill="none" stroke="#cfffac" d="M188.83,-637.75C188.83,-637.75 90.42,-637.75 90.42,-637.75 86.46,-637.75 82.5,-633.79 82.5,-629.83 82.5,-629.83 82.5,-621.92 82.5,-621.92 82.5,-617.96 86.46,-614 90.42,-614 90.42,-614 188.83,-614 188.83,-614 192.79,-614 196.75,-617.96 196.75,-621.92 196.75,-621.92 196.75,-629.83 196.75,-629.83 196.75,-633.79 192.79,-637.75 188.83,-637.75"/>
<text text-anchor="middle" x="139.62" y="-620.45" font-family="Arial" font-size="14.00" fill="#cfffac">public/js/script.js</text>
</g>
<!-- styles/katex.min.css -->
<g id="node30" class="node">
<title>styles/katex.min.css</title>
<path fill="none" stroke="#cfffac" d="M200.08,-679.75C200.08,-679.75 79.17,-679.75 79.17,-679.75 75.21,-679.75 71.25,-675.79 71.25,-671.83 71.25,-671.83 71.25,-663.92 71.25,-663.92 71.25,-659.96 75.21,-656 79.17,-656 79.17,-656 200.08,-656 200.08,-656 204.04,-656 208,-659.96 208,-663.92 208,-663.92 208,-671.83 208,-671.83 208,-675.79 204.04,-679.75 200.08,-679.75"/>
<text text-anchor="middle" x="139.62" y="-662.45" font-family="Arial" font-size="14.00" fill="#cfffac">styles/katex.min.css</text>
</g>
<!-- styles/tailwind.css -->
<g id="node31" class="node">
<title>styles/tailwind.css</title>
<path fill="none" stroke="#cfffac" d="M193.33,-721.75C193.33,-721.75 85.92,-721.75 85.92,-721.75 81.96,-721.75 78,-717.79 78,-713.83 78,-713.83 78,-705.92 78,-705.92 78,-701.96 81.96,-698 85.92,-698 85.92,-698 193.33,-698 193.33,-698 197.29,-698 201.25,-701.96 201.25,-705.92 201.25,-705.92 201.25,-713.83 201.25,-713.83 201.25,-717.79 197.29,-721.75 193.33,-721.75"/>
<text text-anchor="middle" x="139.62" y="-704.45" font-family="Arial" font-size="14.00" fill="#cfffac">styles/tailwind.css</text>
</g>
<!-- ui/blocks/NavFooter/index.tsx -->
<g id="node32" class="node">
<title>ui/blocks/NavFooter/index.tsx</title>
<path fill="none" stroke="#cfffac" d="M227.83,-763.75C227.83,-763.75 51.42,-763.75 51.42,-763.75 47.46,-763.75 43.5,-759.79 43.5,-755.83 43.5,-755.83 43.5,-747.92 43.5,-747.92 43.5,-743.96 47.46,-740 51.42,-740 51.42,-740 227.83,-740 227.83,-740 231.79,-740 235.75,-743.96 235.75,-747.92 235.75,-747.92 235.75,-755.83 235.75,-755.83 235.75,-759.79 231.79,-763.75 227.83,-763.75"/>
<text text-anchor="middle" x="139.62" y="-746.45" font-family="Arial" font-size="14.00" fill="#cfffac">ui/blocks/NavFooter/index.tsx</text>
</g>
<!-- ui/blocks/NavHeader/MoreNav.client.tsx&#45;&gt;ui/blocks/NavHeader/constant.tsx -->
<g id="edge17" class="edge">
<title>ui/blocks/NavHeader/MoreNav.client.tsx&#45;&gt;ui/blocks/NavHeader/constant.tsx</title>
<path fill="none" stroke="#757575" d="M926.72,-448.6C946.94,-447.28 967.79,-445.91 987.8,-444.61"/>
<polygon fill="#757575" stroke="#757575" points="987.75,-448.05 997.5,-443.91 987.3,-441.07 987.75,-448.05"/>
</g>
<!-- ui/components/Button/Button.stories.tsx -->
<g id="node37" class="node">
<title>ui/components/Button/Button.stories.tsx</title>
<path fill="none" stroke="#c6c5fe" d="M258.96,-805.75C258.96,-805.75 20.29,-805.75 20.29,-805.75 16.33,-805.75 12.38,-801.79 12.38,-797.83 12.38,-797.83 12.38,-789.92 12.38,-789.92 12.38,-785.96 16.33,-782 20.29,-782 20.29,-782 258.96,-782 258.96,-782 262.92,-782 266.88,-785.96 266.88,-789.92 266.88,-789.92 266.88,-797.83 266.88,-797.83 266.88,-801.79 262.92,-805.75 258.96,-805.75"/>
<text text-anchor="middle" x="139.62" y="-788.45" font-family="Arial" font-size="14.00" fill="#c6c5fe">ui/components/Button/Button.stories.tsx</text>
</g>
<!-- ui/components/Button/Button.tsx -->
<g id="node38" class="node">
<title>ui/components/Button/Button.tsx</title>
<path fill="none" stroke="#cfffac" d="M554.71,-805.75C554.71,-805.75 359.54,-805.75 359.54,-805.75 355.58,-805.75 351.62,-801.79 351.62,-797.83 351.62,-797.83 351.62,-789.92 351.62,-789.92 351.62,-785.96 355.58,-782 359.54,-782 359.54,-782 554.71,-782 554.71,-782 558.67,-782 562.62,-785.96 562.62,-789.92 562.62,-789.92 562.62,-797.83 562.62,-797.83 562.62,-801.79 558.67,-805.75 554.71,-805.75"/>
<text text-anchor="middle" x="457.12" y="-788.45" font-family="Arial" font-size="14.00" fill="#cfffac">ui/components/Button/Button.tsx</text>
</g>
<!-- ui/components/Button/Button.stories.tsx&#45;&gt;ui/components/Button/Button.tsx -->
<g id="edge22" class="edge">
<title>ui/components/Button/Button.stories.tsx&#45;&gt;ui/components/Button/Button.tsx</title>
<path fill="none" stroke="#757575" d="M267.13,-793.88C291.37,-793.88 316.62,-793.88 340.49,-793.88"/>
<polygon fill="#757575" stroke="#757575" points="340.35,-797.38 350.35,-793.88 340.35,-790.38 340.35,-797.38"/>
</g>
<!-- ui/components/Tooltip/Tooltip.tsx -->
<g id="node39" class="node">
<title>ui/components/Tooltip/Tooltip.tsx</title>
<path fill="none" stroke="#cfffac" d="M237.21,-847.75C237.21,-847.75 42.04,-847.75 42.04,-847.75 38.08,-847.75 34.12,-843.79 34.12,-839.83 34.12,-839.83 34.12,-831.92 34.12,-831.92 34.12,-827.96 38.08,-824 42.04,-824 42.04,-824 237.21,-824 237.21,-824 241.17,-824 245.12,-827.96 245.12,-831.92 245.12,-831.92 245.12,-839.83 245.12,-839.83 245.12,-843.79 241.17,-847.75 237.21,-847.75"/>
<text text-anchor="middle" x="139.62" y="-830.45" font-family="Arial" font-size="14.00" fill="#cfffac">ui/components/Tooltip/Tooltip.tsx</text>
</g>
<!-- ui/svgs/index.tsx -->
<g id="node40" class="node">
<title>ui/svgs/index.tsx</title>
<path fill="none" stroke="#cfffac" d="M189.21,-889.75C189.21,-889.75 90.04,-889.75 90.04,-889.75 86.08,-889.75 82.12,-885.79 82.12,-881.83 82.12,-881.83 82.12,-873.92 82.12,-873.92 82.12,-869.96 86.08,-866 90.04,-866 90.04,-866 189.21,-866 189.21,-866 193.17,-866 197.12,-869.96 197.12,-873.92 197.12,-873.92 197.12,-881.83 197.12,-881.83 197.12,-885.79 193.17,-889.75 189.21,-889.75"/>
<text text-anchor="middle" x="139.62" y="-872.45" font-family="Arial" font-size="14.00" fill="#cfffac">ui/svgs/index.tsx</text>
</g>
</g>
</svg>
