<?xml version="1.0" encoding="UTF-8" standalone="no"?>
<!DOCTYPE svg PUBLIC "-//W3C//DTD SVG 1.1//EN"
 "http://www.w3.org/Graphics/SVG/1.1/DTD/svg11.dtd">
<!-- Generated by graphviz version 8.1.0 (20230707.0739)
 -->
<!-- Title: G Pages: 1 -->
<svg width="756pt" height="445pt"
 viewBox="0.00 0.00 755.70 444.95" xmlns="http://www.w3.org/2000/svg" xmlns:xlink="http://www.w3.org/1999/xlink">
<g id="graph0" class="graph" transform="scale(1 1) rotate(0) translate(21.6 423.35)">
<title>G</title>
<polygon fill="#111111" stroke="none" points="-21.6,21.6 -21.6,-423.35 734.1,-423.35 734.1,21.6 -21.6,21.6"/>
<!-- blocks/NavHeader/index.tsx -->
<g id="node1" class="node">
<title>blocks/NavHeader/index.tsx</title>
<path fill="none" stroke="#cfffac" d="M203.83,-23.75C203.83,-23.75 36.42,-23.75 36.42,-23.75 32.46,-23.75 28.5,-19.79 28.5,-15.83 28.5,-15.83 28.5,-7.92 28.5,-7.92 28.5,-3.96 32.46,0 36.42,0 36.42,0 203.83,0 203.83,0 207.79,0 211.75,-3.96 211.75,-7.92 211.75,-7.92 211.75,-15.83 211.75,-15.83 211.75,-19.79 207.79,-23.75 203.83,-23.75"/>
<text text-anchor="middle" x="120.12" y="-6.45" font-family="Arial" font-size="14.00" fill="#cfffac">blocks/NavHeader/index.tsx</text>
</g>
<!-- components/Button/Button.stories.tsx -->
<g id="node2" class="node">
<title>components/Button/Button.stories.tsx</title>
<path fill="none" stroke="#c6c5fe" d="M232.33,-65.75C232.33,-65.75 7.92,-65.75 7.92,-65.75 3.96,-65.75 0,-61.79 0,-57.83 0,-57.83 0,-49.92 0,-49.92 0,-45.96 3.96,-42 7.92,-42 7.92,-42 232.33,-42 232.33,-42 236.29,-42 240.25,-45.96 240.25,-49.92 240.25,-49.92 240.25,-57.83 240.25,-57.83 240.25,-61.79 236.29,-65.75 232.33,-65.75"/>
<text text-anchor="middle" x="120.12" y="-48.45" font-family="Arial" font-size="14.00" fill="#c6c5fe">components/Button/Button.stories.tsx</text>
</g>
<!-- components/Button/Button.tsx -->
<g id="node3" class="node">
<title>components/Button/Button.tsx</title>
<path fill="none" stroke="#cfffac" d="M505.21,-65.75C505.21,-65.75 324.29,-65.75 324.29,-65.75 320.33,-65.75 316.38,-61.79 316.38,-57.83 316.38,-57.83 316.38,-49.92 316.38,-49.92 316.38,-45.96 320.33,-42 324.29,-42 324.29,-42 505.21,-42 505.21,-42 509.17,-42 513.12,-45.96 513.12,-49.92 513.12,-49.92 513.12,-57.83 513.12,-57.83 513.12,-61.79 509.17,-65.75 505.21,-65.75"/>
<text text-anchor="middle" x="414.75" y="-48.45" font-family="Arial" font-size="14.00" fill="#cfffac">components/Button/Button.tsx</text>
</g>
<!-- components/Button/Button.stories.tsx&#45;&gt;components/Button/Button.tsx -->
<g id="edge1" class="edge">
<title>components/Button/Button.stories.tsx&#45;&gt;components/Button/Button.tsx</title>
<path fill="none" stroke="#757575" d="M240.57,-53.88C261.97,-53.88 284.16,-53.88 305.23,-53.88"/>
<polygon fill="#757575" stroke="#757575" points="305.13,-57.38 315.13,-53.88 305.13,-50.38 305.13,-57.38"/>
</g>
<!-- components/Tooltip/Tooltip.tsx -->
<g id="node4" class="node">
<title>components/Tooltip/Tooltip.tsx</title>
<path fill="none" stroke="#cfffac" d="M210.58,-107.75C210.58,-107.75 29.67,-107.75 29.67,-107.75 25.71,-107.75 21.75,-103.79 21.75,-99.83 21.75,-99.83 21.75,-91.92 21.75,-91.92 21.75,-87.96 25.71,-84 29.67,-84 29.67,-84 210.58,-84 210.58,-84 214.54,-84 218.5,-87.96 218.5,-91.92 218.5,-91.92 218.5,-99.83 218.5,-99.83 218.5,-103.79 214.54,-107.75 210.58,-107.75"/>
<text text-anchor="middle" x="120.12" y="-90.45" font-family="Arial" font-size="14.00" fill="#cfffac">components/Tooltip/Tooltip.tsx</text>
</g>
<!-- lp&#45;items.tsx -->
<g id="node5" class="node">
<title>lp&#45;items.tsx</title>
<path fill="none" stroke="#cfffac" d="M154.71,-149.75C154.71,-149.75 85.54,-149.75 85.54,-149.75 81.58,-149.75 77.62,-145.79 77.62,-141.83 77.62,-141.83 77.62,-133.92 77.62,-133.92 77.62,-129.96 81.58,-126 85.54,-126 85.54,-126 154.71,-126 154.71,-126 158.67,-126 162.62,-129.96 162.62,-133.92 162.62,-133.92 162.62,-141.83 162.62,-141.83 162.62,-145.79 158.67,-149.75 154.71,-149.75"/>
<text text-anchor="middle" x="120.12" y="-132.45" font-family="Arial" font-size="14.00" fill="#cfffac">lp&#45;items.tsx</text>
</g>
<!-- pages/_app.test.tsx -->
<g id="node6" class="node">
<title>pages/_app.test.tsx</title>
<path fill="none" stroke="#c6c5fe" d="M178.71,-191.75C178.71,-191.75 61.54,-191.75 61.54,-191.75 57.58,-191.75 53.62,-187.79 53.62,-183.83 53.62,-183.83 53.62,-175.92 53.62,-175.92 53.62,-171.96 57.58,-168 61.54,-168 61.54,-168 178.71,-168 178.71,-168 182.67,-168 186.62,-171.96 186.62,-175.92 186.62,-175.92 186.62,-183.83 186.62,-183.83 186.62,-187.79 182.67,-191.75 178.71,-191.75"/>
<text text-anchor="middle" x="120.12" y="-174.45" font-family="Arial" font-size="14.00" fill="#c6c5fe">pages/_app.test.tsx</text>
</g>
<!-- pages/_app.tsx -->
<g id="node7" class="node">
<title>pages/_app.tsx</title>
<path fill="none" stroke="#c6c5fe" d="M460.58,-191.75C460.58,-191.75 368.92,-191.75 368.92,-191.75 364.96,-191.75 361,-187.79 361,-183.83 361,-183.83 361,-175.92 361,-175.92 361,-171.96 364.96,-168 368.92,-168 368.92,-168 460.58,-168 460.58,-168 464.54,-168 468.5,-171.96 468.5,-175.92 468.5,-175.92 468.5,-183.83 468.5,-183.83 468.5,-187.79 464.54,-191.75 460.58,-191.75"/>
<text text-anchor="middle" x="414.75" y="-174.45" font-family="Arial" font-size="14.00" fill="#c6c5fe">pages/_app.tsx</text>
</g>
<!-- pages/_app.test.tsx&#45;&gt;pages/_app.tsx -->
<g id="edge2" class="edge">
<title>pages/_app.test.tsx&#45;&gt;pages/_app.tsx</title>
<path fill="none" stroke="#757575" d="M186.8,-179.88C235.41,-179.88 301.31,-179.88 349.57,-179.88"/>
<polygon fill="#757575" stroke="#757575" points="349.51,-183.38 359.51,-179.88 349.51,-176.38 349.51,-183.38"/>
</g>
<!-- styles/tailwind.css -->
<g id="node8" class="node">
<title>styles/tailwind.css</title>
<path fill="none" stroke="#cfffac" d="M704.58,-191.75C704.58,-191.75 597.17,-191.75 597.17,-191.75 593.21,-191.75 589.25,-187.79 589.25,-183.83 589.25,-183.83 589.25,-175.92 589.25,-175.92 589.25,-171.96 593.21,-168 597.17,-168 597.17,-168 704.58,-168 704.58,-168 708.54,-168 712.5,-171.96 712.5,-175.92 712.5,-175.92 712.5,-183.83 712.5,-183.83 712.5,-187.79 708.54,-191.75 704.58,-191.75"/>
<text text-anchor="middle" x="650.88" y="-174.45" font-family="Arial" font-size="14.00" fill="#cfffac">styles/tailwind.css</text>
</g>
<!-- pages/_app.tsx&#45;&gt;styles/tailwind.css -->
<g id="edge3" class="edge">
<title>pages/_app.tsx&#45;&gt;styles/tailwind.css</title>
<path fill="none" stroke="#757575" d="M468.88,-179.88C501.28,-179.88 543.1,-179.88 578.39,-179.88"/>
<polygon fill="#757575" stroke="#757575" points="578.11,-183.38 588.11,-179.88 578.11,-176.38 578.11,-183.38"/>
</g>
<!-- pages/api/health.ts -->
<g id="node9" class="node">
<title>pages/api/health.ts</title>
<path fill="none" stroke="#cfffac" d="M176.83,-233.75C176.83,-233.75 63.42,-233.75 63.42,-233.75 59.46,-233.75 55.5,-229.79 55.5,-225.83 55.5,-225.83 55.5,-217.92 55.5,-217.92 55.5,-213.96 59.46,-210 63.42,-210 63.42,-210 176.83,-210 176.83,-210 180.79,-210 184.75,-213.96 184.75,-217.92 184.75,-217.92 184.75,-225.83 184.75,-225.83 184.75,-229.79 180.79,-233.75 176.83,-233.75"/>
<text text-anchor="middle" x="120.12" y="-216.45" font-family="Arial" font-size="14.00" fill="#cfffac">pages/api/health.ts</text>
</g>
<!-- pages/index.tsx -->
<g id="node10" class="node">
<title>pages/index.tsx</title>
<path fill="none" stroke="#cfffac" d="M167.08,-275.75C167.08,-275.75 73.17,-275.75 73.17,-275.75 69.21,-275.75 65.25,-271.79 65.25,-267.83 65.25,-267.83 65.25,-259.92 65.25,-259.92 65.25,-255.96 69.21,-252 73.17,-252 73.17,-252 167.08,-252 167.08,-252 171.04,-252 175,-255.96 175,-259.92 175,-259.92 175,-267.83 175,-267.83 175,-271.79 171.04,-275.75 167.08,-275.75"/>
<text text-anchor="middle" x="120.12" y="-258.45" font-family="Arial" font-size="14.00" fill="#cfffac">pages/index.tsx</text>
</g>
<!-- pages/landing&#45;page/LandingPageFooter.tsx -->
<g id="node11" class="node">
<title>pages/landing&#45;page/LandingPageFooter.tsx</title>
<path fill="none" stroke="#cfffac" d="M545.33,-338.75C545.33,-338.75 284.17,-338.75 284.17,-338.75 280.21,-338.75 276.25,-334.79 276.25,-330.83 276.25,-330.83 276.25,-322.92 276.25,-322.92 276.25,-318.96 280.21,-315 284.17,-315 284.17,-315 545.33,-315 545.33,-315 549.29,-315 553.25,-318.96 553.25,-322.92 553.25,-322.92 553.25,-330.83 553.25,-330.83 553.25,-334.79 549.29,-338.75 545.33,-338.75"/>
<text text-anchor="middle" x="414.75" y="-321.45" font-family="Arial" font-size="14.00" fill="#cfffac">pages/landing&#45;page/LandingPageFooter.tsx</text>
</g>
<!-- pages/landing&#45;page/LandingPageMain.tsx -->
<g id="node12" class="node">
<title>pages/landing&#45;page/LandingPageMain.tsx</title>
<path fill="none" stroke="#cfffac" d="M541.21,-296.75C541.21,-296.75 288.29,-296.75 288.29,-296.75 284.33,-296.75 280.38,-292.79 280.38,-288.83 280.38,-288.83 280.38,-280.92 280.38,-280.92 280.38,-276.96 284.33,-273 288.29,-273 288.29,-273 541.21,-273 541.21,-273 545.17,-273 549.12,-276.96 549.12,-280.92 549.12,-280.92 549.12,-288.83 549.12,-288.83 549.12,-292.79 545.17,-296.75 541.21,-296.75"/>
<text text-anchor="middle" x="414.75" y="-279.45" font-family="Arial" font-size="14.00" fill="#cfffac">pages/landing&#45;page/LandingPageMain.tsx</text>
</g>
<!-- pages/landing&#45;page/index.tsx -->
<g id="node13" class="node">
<title>pages/landing&#45;page/index.tsx</title>
<path fill="none" stroke="#c6c5fe" d="M207.96,-317.75C207.96,-317.75 32.29,-317.75 32.29,-317.75 28.33,-317.75 24.38,-313.79 24.38,-309.83 24.38,-309.83 24.38,-301.92 24.38,-301.92 24.38,-297.96 28.33,-294 32.29,-294 32.29,-294 207.96,-294 207.96,-294 211.92,-294 215.88,-297.96 215.88,-301.92 215.88,-301.92 215.88,-309.83 215.88,-309.83 215.88,-313.79 211.92,-317.75 207.96,-317.75"/>
<text text-anchor="middle" x="120.12" y="-300.45" font-family="Arial" font-size="14.00" fill="#c6c5fe">pages/landing&#45;page/index.tsx</text>
</g>
<!-- pages/landing&#45;page/index.tsx&#45;&gt;pages/landing&#45;page/LandingPageFooter.tsx -->
<g id="edge4" class="edge">
<title>pages/landing&#45;page/index.tsx&#45;&gt;pages/landing&#45;page/LandingPageFooter.tsx</title>
<path fill="none" stroke="#757575" d="M216.13,-312.69C231.81,-313.82 248.38,-315.01 265,-316.2"/>
<polygon fill="#757575" stroke="#757575" points="264.69,-319.76 274.91,-316.98 265.19,-312.78 264.69,-319.76"/>
</g>
<!-- pages/landing&#45;page/index.tsx&#45;&gt;pages/landing&#45;page/LandingPageMain.tsx -->
<g id="edge5" class="edge">
<title>pages/landing&#45;page/index.tsx&#45;&gt;pages/landing&#45;page/LandingPageMain.tsx</title>
<path fill="none" stroke="#757575" d="M216.13,-299.06C233.07,-297.84 251.06,-296.55 269.02,-295.26"/>
<polygon fill="#757575" stroke="#757575" points="269.16,-298.69 278.89,-294.48 268.66,-291.71 269.16,-298.69"/>
</g>
<!-- public/front/build/kube/style.css -->
<g id="node14" class="node">
<title>public/front/build/kube/style.css</title>
<path fill="none" stroke="#cfffac" d="M213.58,-359.75C213.58,-359.75 26.67,-359.75 26.67,-359.75 22.71,-359.75 18.75,-355.79 18.75,-351.83 18.75,-351.83 18.75,-343.92 18.75,-343.92 18.75,-339.96 22.71,-336 26.67,-336 26.67,-336 213.58,-336 213.58,-336 217.54,-336 221.5,-339.96 221.5,-343.92 221.5,-343.92 221.5,-351.83 221.5,-351.83 221.5,-355.79 217.54,-359.75 213.58,-359.75"/>
<text text-anchor="middle" x="120.12" y="-342.45" font-family="Arial" font-size="14.00" fill="#cfffac">public/front/build/kube/style.css</text>
</g>
<!-- public/js/script.js -->
<g id="node15" class="node">
<title>public/js/script.js</title>
<path fill="none" stroke="#cfffac" d="M169.33,-401.75C169.33,-401.75 70.92,-401.75 70.92,-401.75 66.96,-401.75 63,-397.79 63,-393.83 63,-393.83 63,-385.92 63,-385.92 63,-381.96 66.96,-378 70.92,-378 70.92,-378 169.33,-378 169.33,-378 173.29,-378 177.25,-381.96 177.25,-385.92 177.25,-385.92 177.25,-393.83 177.25,-393.83 177.25,-397.79 173.29,-401.75 169.33,-401.75"/>
<text text-anchor="middle" x="120.12" y="-384.45" font-family="Arial" font-size="14.00" fill="#cfffac">public/js/script.js</text>
</g>
</g>
</svg>
