<?xml version="1.0" encoding="UTF-8" standalone="no"?>
<!DOCTYPE svg PUBLIC "-//W3C//DTD SVG 1.1//EN"
 "http://www.w3.org/Graphics/SVG/1.1/DTD/svg11.dtd">
<!-- Generated by graphviz version 8.1.0 (20230707.0739)
 -->
<!-- Title: G Pages: 1 -->
<svg width="836pt" height="549pt"
 viewBox="0.00 0.00 835.95 548.95" xmlns="http://www.w3.org/2000/svg" xmlns:xlink="http://www.w3.org/1999/xlink">
<g id="graph0" class="graph" transform="scale(1 1) rotate(0) translate(21.6 527.35)">
<title>G</title>
<polygon fill="#111111" stroke="none" points="-21.6,21.6 -21.6,-527.35 814.35,-527.35 814.35,21.6 -21.6,21.6"/>
<!-- app/api/health.ts -->
<g id="node1" class="node">
<title>app/api/health.ts</title>
<path fill="none" stroke="#cfffac" d="M169.71,-23.75C169.71,-23.75 70.54,-23.75 70.54,-23.75 66.58,-23.75 62.62,-19.79 62.62,-15.83 62.62,-15.83 62.62,-7.92 62.62,-7.92 62.62,-3.96 66.58,0 70.54,0 70.54,0 169.71,0 169.71,0 173.67,0 177.62,-3.96 177.62,-7.92 177.62,-7.92 177.62,-15.83 177.62,-15.83 177.62,-19.79 173.67,-23.75 169.71,-23.75"/>
<text text-anchor="middle" x="120.12" y="-6.45" font-family="Arial" font-size="14.00" fill="#cfffac">app/api/health.ts</text>
</g>
<!-- app/landing&#45;page/LandingPageFooter.tsx -->
<g id="node2" class="node">
<title>app/landing&#45;page/LandingPageFooter.tsx</title>
<path fill="none" stroke="#cfffac" d="M538.96,-67.75C538.96,-67.75 292.04,-67.75 292.04,-67.75 288.08,-67.75 284.12,-63.79 284.12,-59.83 284.12,-59.83 284.12,-51.92 284.12,-51.92 284.12,-47.96 288.08,-44 292.04,-44 292.04,-44 538.96,-44 538.96,-44 542.92,-44 546.88,-47.96 546.88,-51.92 546.88,-51.92 546.88,-59.83 546.88,-59.83 546.88,-63.79 542.92,-67.75 538.96,-67.75"/>
<text text-anchor="middle" x="415.5" y="-50.45" font-family="Arial" font-size="14.00" fill="#cfffac">app/landing&#45;page/LandingPageFooter.tsx</text>
</g>
<!-- app/landing&#45;page/LandingPageMain.tsx -->
<g id="node3" class="node">
<title>app/landing&#45;page/LandingPageMain.tsx</title>
<path fill="none" stroke="#cfffac" d="M534.83,-25.75C534.83,-25.75 296.17,-25.75 296.17,-25.75 292.21,-25.75 288.25,-21.79 288.25,-17.83 288.25,-17.83 288.25,-9.92 288.25,-9.92 288.25,-5.96 292.21,-2 296.17,-2 296.17,-2 534.83,-2 534.83,-2 538.79,-2 542.75,-5.96 542.75,-9.92 542.75,-9.92 542.75,-17.83 542.75,-17.83 542.75,-21.79 538.79,-25.75 534.83,-25.75"/>
<text text-anchor="middle" x="415.5" y="-8.45" font-family="Arial" font-size="14.00" fill="#cfffac">app/landing&#45;page/LandingPageMain.tsx</text>
</g>
<!-- app/landing&#45;page/index.tsx -->
<g id="node4" class="node">
<title>app/landing&#45;page/index.tsx</title>
<path fill="none" stroke="#c6c5fe" d="M200.83,-65.75C200.83,-65.75 39.42,-65.75 39.42,-65.75 35.46,-65.75 31.5,-61.79 31.5,-57.83 31.5,-57.83 31.5,-49.92 31.5,-49.92 31.5,-45.96 35.46,-42 39.42,-42 39.42,-42 200.83,-42 200.83,-42 204.79,-42 208.75,-45.96 208.75,-49.92 208.75,-49.92 208.75,-57.83 208.75,-57.83 208.75,-61.79 204.79,-65.75 200.83,-65.75"/>
<text text-anchor="middle" x="120.12" y="-48.45" font-family="Arial" font-size="14.00" fill="#c6c5fe">app/landing&#45;page/index.tsx</text>
</g>
<!-- app/landing&#45;page/index.tsx&#45;&gt;app/landing&#45;page/LandingPageFooter.tsx -->
<g id="edge1" class="edge">
<title>app/landing&#45;page/index.tsx&#45;&gt;app/landing&#45;page/LandingPageFooter.tsx</title>
<path fill="none" stroke="#757575" d="M209.15,-54.48C229.22,-54.61 251.04,-54.76 272.72,-54.91"/>
<polygon fill="#757575" stroke="#757575" points="272.67,-58.41 282.69,-54.98 272.71,-51.42 272.67,-58.41"/>
</g>
<!-- app/landing&#45;page/index.tsx&#45;&gt;app/landing&#45;page/LandingPageMain.tsx -->
<g id="edge2" class="edge">
<title>app/landing&#45;page/index.tsx&#45;&gt;app/landing&#45;page/LandingPageMain.tsx</title>
<path fill="none" stroke="#757575" d="M209.15,-41.87C241.82,-37.42 279.13,-32.33 312.91,-27.73"/>
<polygon fill="#757575" stroke="#757575" points="313.31,-31.07 322.74,-26.25 312.36,-24.13 313.31,-31.07"/>
</g>
<!-- app/layout.tsx -->
<g id="node5" class="node">
<title>app/layout.tsx</title>
<path fill="none" stroke="#cfffac" d="M161.83,-107.75C161.83,-107.75 78.42,-107.75 78.42,-107.75 74.46,-107.75 70.5,-103.79 70.5,-99.83 70.5,-99.83 70.5,-91.92 70.5,-91.92 70.5,-87.96 74.46,-84 78.42,-84 78.42,-84 161.83,-84 161.83,-84 165.79,-84 169.75,-87.96 169.75,-91.92 169.75,-91.92 169.75,-99.83 169.75,-99.83 169.75,-103.79 165.79,-107.75 161.83,-107.75"/>
<text text-anchor="middle" x="120.12" y="-90.45" font-family="Arial" font-size="14.00" fill="#cfffac">app/layout.tsx</text>
</g>
<!-- app/page.tsx -->
<g id="node6" class="node">
<title>app/page.tsx</title>
<path fill="none" stroke="#cfffac" d="M158.83,-149.75C158.83,-149.75 81.42,-149.75 81.42,-149.75 77.46,-149.75 73.5,-145.79 73.5,-141.83 73.5,-141.83 73.5,-133.92 73.5,-133.92 73.5,-129.96 77.46,-126 81.42,-126 81.42,-126 158.83,-126 158.83,-126 162.79,-126 166.75,-129.96 166.75,-133.92 166.75,-133.92 166.75,-141.83 166.75,-141.83 166.75,-145.79 162.79,-149.75 158.83,-149.75"/>
<text text-anchor="middle" x="120.12" y="-132.45" font-family="Arial" font-size="14.00" fill="#cfffac">app/page.tsx</text>
</g>
<!-- blocks/NavHeader/AllNavInSmallScreen.tsx -->
<g id="node7" class="node">
<title>blocks/NavHeader/AllNavInSmallScreen.tsx</title>
<path fill="none" stroke="#cfffac" d="M546.83,-253.75C546.83,-253.75 284.17,-253.75 284.17,-253.75 280.21,-253.75 276.25,-249.79 276.25,-245.83 276.25,-245.83 276.25,-237.92 276.25,-237.92 276.25,-233.96 280.21,-230 284.17,-230 284.17,-230 546.83,-230 546.83,-230 550.79,-230 554.75,-233.96 554.75,-237.92 554.75,-237.92 554.75,-245.83 554.75,-245.83 554.75,-249.79 550.79,-253.75 546.83,-253.75"/>
<text text-anchor="middle" x="415.5" y="-236.45" font-family="Arial" font-size="14.00" fill="#cfffac">blocks/NavHeader/AllNavInSmallScreen.tsx</text>
</g>
<!-- blocks/NavHeader/MoreNav.tsx -->
<g id="node8" class="node">
<title>blocks/NavHeader/MoreNav.tsx</title>
<path fill="none" stroke="#c6c5fe" d="M510.46,-211.75C510.46,-211.75 320.54,-211.75 320.54,-211.75 316.58,-211.75 312.62,-207.79 312.62,-203.83 312.62,-203.83 312.62,-195.92 312.62,-195.92 312.62,-191.96 316.58,-188 320.54,-188 320.54,-188 510.46,-188 510.46,-188 514.42,-188 518.38,-191.96 518.38,-195.92 518.38,-195.92 518.38,-203.83 518.38,-203.83 518.38,-207.79 514.42,-211.75 510.46,-211.75"/>
<text text-anchor="middle" x="415.5" y="-194.45" font-family="Arial" font-size="14.00" fill="#c6c5fe">blocks/NavHeader/MoreNav.tsx</text>
</g>
<!-- blocks/NavHeader/constant.tsx -->
<g id="node9" class="node">
<title>blocks/NavHeader/constant.tsx</title>
<path fill="none" stroke="#cfffac" d="M784.83,-191.75C784.83,-191.75 598.67,-191.75 598.67,-191.75 594.71,-191.75 590.75,-187.79 590.75,-183.83 590.75,-183.83 590.75,-175.92 590.75,-175.92 590.75,-171.96 594.71,-168 598.67,-168 598.67,-168 784.83,-168 784.83,-168 788.79,-168 792.75,-171.96 792.75,-175.92 792.75,-175.92 792.75,-183.83 792.75,-183.83 792.75,-187.79 788.79,-191.75 784.83,-191.75"/>
<text text-anchor="middle" x="691.75" y="-174.45" font-family="Arial" font-size="14.00" fill="#cfffac">blocks/NavHeader/constant.tsx</text>
</g>
<!-- blocks/NavHeader/MoreNav.tsx&#45;&gt;blocks/NavHeader/constant.tsx -->
<g id="edge3" class="edge">
<title>blocks/NavHeader/MoreNav.tsx&#45;&gt;blocks/NavHeader/constant.tsx</title>
<path fill="none" stroke="#757575" d="M518.62,-192.43C538.5,-190.98 559.43,-189.45 579.59,-187.98"/>
<polygon fill="#757575" stroke="#757575" points="579.65,-191.41 589.37,-187.2 579.14,-184.43 579.65,-191.41"/>
</g>
<!-- blocks/NavHeader/SearchBar.tsx -->
<g id="node10" class="node">
<title>blocks/NavHeader/SearchBar.tsx</title>
<path fill="none" stroke="#cfffac" d="M514.58,-131.75C514.58,-131.75 316.42,-131.75 316.42,-131.75 312.46,-131.75 308.5,-127.79 308.5,-123.83 308.5,-123.83 308.5,-115.92 308.5,-115.92 308.5,-111.96 312.46,-108 316.42,-108 316.42,-108 514.58,-108 514.58,-108 518.54,-108 522.5,-111.96 522.5,-115.92 522.5,-115.92 522.5,-123.83 522.5,-123.83 522.5,-127.79 518.54,-131.75 514.58,-131.75"/>
<text text-anchor="middle" x="415.5" y="-114.45" font-family="Arial" font-size="14.00" fill="#cfffac">blocks/NavHeader/SearchBar.tsx</text>
</g>
<!-- blocks/NavHeader/index.tsx -->
<g id="node11" class="node">
<title>blocks/NavHeader/index.tsx</title>
<path fill="none" stroke="#c6c5fe" d="M203.83,-191.75C203.83,-191.75 36.42,-191.75 36.42,-191.75 32.46,-191.75 28.5,-187.79 28.5,-183.83 28.5,-183.83 28.5,-175.92 28.5,-175.92 28.5,-171.96 32.46,-168 36.42,-168 36.42,-168 203.83,-168 203.83,-168 207.79,-168 211.75,-171.96 211.75,-175.92 211.75,-175.92 211.75,-183.83 211.75,-183.83 211.75,-187.79 207.79,-191.75 203.83,-191.75"/>
<text text-anchor="middle" x="120.12" y="-174.45" font-family="Arial" font-size="14.00" fill="#c6c5fe">blocks/NavHeader/index.tsx</text>
</g>
<!-- blocks/NavHeader/index.tsx&#45;&gt;blocks/NavHeader/AllNavInSmallScreen.tsx -->
<g id="edge4" class="edge">
<title>blocks/NavHeader/index.tsx&#45;&gt;blocks/NavHeader/AllNavInSmallScreen.tsx</title>
<path fill="none" stroke="#757575" d="M162.97,-192.24C194.03,-201.1 237.52,-212.84 276.25,-220.88 288.23,-223.36 300.85,-225.68 313.39,-227.8"/>
<polygon fill="#757575" stroke="#757575" points="312.46,-231.36 322.89,-229.54 313.6,-224.46 312.46,-231.36"/>
</g>
<!-- blocks/NavHeader/index.tsx&#45;&gt;blocks/NavHeader/MoreNav.tsx -->
<g id="edge5" class="edge">
<title>blocks/NavHeader/index.tsx&#45;&gt;blocks/NavHeader/MoreNav.tsx</title>
<path fill="none" stroke="#757575" d="M211.94,-186.07C240.27,-188 271.86,-190.15 301.52,-192.17"/>
<polygon fill="#757575" stroke="#757575" points="301.13,-195.72 311.34,-192.91 301.6,-188.74 301.13,-195.72"/>
</g>
<!-- blocks/NavHeader/index.tsx&#45;&gt;blocks/NavHeader/constant.tsx -->
<g id="edge7" class="edge">
<title>blocks/NavHeader/index.tsx&#45;&gt;blocks/NavHeader/constant.tsx</title>
<path fill="none" stroke="#757575" d="M212.17,-179.19C233.22,-179.06 255.51,-178.94 276.25,-178.88 400.03,-178.48 430.97,-178.42 554.75,-178.88 562.88,-178.9 571.29,-178.94 579.75,-178.99"/>
<polygon fill="#757575" stroke="#757575" points="579.46,-182.5 589.48,-179.05 579.5,-175.5 579.46,-182.5"/>
</g>
<!-- blocks/NavHeader/index.tsx&#45;&gt;blocks/NavHeader/SearchBar.tsx -->
<g id="edge6" class="edge">
<title>blocks/NavHeader/index.tsx&#45;&gt;blocks/NavHeader/SearchBar.tsx</title>
<path fill="none" stroke="#757575" d="M202.28,-167.5C215.06,-165 228.07,-162.12 240.25,-158.88 256.69,-154.49 259.84,-150.35 276.25,-145.88 292.35,-141.49 309.7,-137.59 326.49,-134.23"/>
<polygon fill="#757575" stroke="#757575" points="326.71,-137.56 335.86,-132.21 325.37,-130.69 326.71,-137.56"/>
</g>
<!-- components/Button/Button.stories.tsx -->
<g id="node12" class="node">
<title>components/Button/Button.stories.tsx</title>
<path fill="none" stroke="#c6c5fe" d="M232.33,-295.75C232.33,-295.75 7.92,-295.75 7.92,-295.75 3.96,-295.75 0,-291.79 0,-287.83 0,-287.83 0,-279.92 0,-279.92 0,-275.96 3.96,-272 7.92,-272 7.92,-272 232.33,-272 232.33,-272 236.29,-272 240.25,-275.96 240.25,-279.92 240.25,-279.92 240.25,-287.83 240.25,-287.83 240.25,-291.79 236.29,-295.75 232.33,-295.75"/>
<text text-anchor="middle" x="120.12" y="-278.45" font-family="Arial" font-size="14.00" fill="#c6c5fe">components/Button/Button.stories.tsx</text>
</g>
<!-- components/Button/Button.tsx -->
<g id="node13" class="node">
<title>components/Button/Button.tsx</title>
<path fill="none" stroke="#cfffac" d="M505.96,-295.75C505.96,-295.75 325.04,-295.75 325.04,-295.75 321.08,-295.75 317.12,-291.79 317.12,-287.83 317.12,-287.83 317.12,-279.92 317.12,-279.92 317.12,-275.96 321.08,-272 325.04,-272 325.04,-272 505.96,-272 505.96,-272 509.92,-272 513.88,-275.96 513.88,-279.92 513.88,-279.92 513.88,-287.83 513.88,-287.83 513.88,-291.79 509.92,-295.75 505.96,-295.75"/>
<text text-anchor="middle" x="415.5" y="-278.45" font-family="Arial" font-size="14.00" fill="#cfffac">components/Button/Button.tsx</text>
</g>
<!-- components/Button/Button.stories.tsx&#45;&gt;components/Button/Button.tsx -->
<g id="edge8" class="edge">
<title>components/Button/Button.stories.tsx&#45;&gt;components/Button/Button.tsx</title>
<path fill="none" stroke="#757575" d="M240.45,-283.88C262.17,-283.88 284.71,-283.88 306.08,-283.88"/>
<polygon fill="#757575" stroke="#757575" points="305.81,-287.38 315.81,-283.88 305.81,-280.38 305.81,-287.38"/>
</g>
<!-- components/Tooltip/Tooltip.tsx -->
<g id="node14" class="node">
<title>components/Tooltip/Tooltip.tsx</title>
<path fill="none" stroke="#cfffac" d="M210.58,-337.75C210.58,-337.75 29.67,-337.75 29.67,-337.75 25.71,-337.75 21.75,-333.79 21.75,-329.83 21.75,-329.83 21.75,-321.92 21.75,-321.92 21.75,-317.96 25.71,-314 29.67,-314 29.67,-314 210.58,-314 210.58,-314 214.54,-314 218.5,-317.96 218.5,-321.92 218.5,-321.92 218.5,-329.83 218.5,-329.83 218.5,-333.79 214.54,-337.75 210.58,-337.75"/>
<text text-anchor="middle" x="120.12" y="-320.45" font-family="Arial" font-size="14.00" fill="#cfffac">components/Tooltip/Tooltip.tsx</text>
</g>
<!-- lp&#45;items.tsx -->
<g id="node15" class="node">
<title>lp&#45;items.tsx</title>
<path fill="none" stroke="#cfffac" d="M154.71,-379.75C154.71,-379.75 85.54,-379.75 85.54,-379.75 81.58,-379.75 77.62,-375.79 77.62,-371.83 77.62,-371.83 77.62,-363.92 77.62,-363.92 77.62,-359.96 81.58,-356 85.54,-356 85.54,-356 154.71,-356 154.71,-356 158.67,-356 162.62,-359.96 162.62,-363.92 162.62,-363.92 162.62,-371.83 162.62,-371.83 162.62,-375.79 158.67,-379.75 154.71,-379.75"/>
<text text-anchor="middle" x="120.12" y="-362.45" font-family="Arial" font-size="14.00" fill="#cfffac">lp&#45;items.tsx</text>
</g>
<!-- public/front/build/kube/style.css -->
<g id="node16" class="node">
<title>public/front/build/kube/style.css</title>
<path fill="none" stroke="#cfffac" d="M213.58,-421.75C213.58,-421.75 26.67,-421.75 26.67,-421.75 22.71,-421.75 18.75,-417.79 18.75,-413.83 18.75,-413.83 18.75,-405.92 18.75,-405.92 18.75,-401.96 22.71,-398 26.67,-398 26.67,-398 213.58,-398 213.58,-398 217.54,-398 221.5,-401.96 221.5,-405.92 221.5,-405.92 221.5,-413.83 221.5,-413.83 221.5,-417.79 217.54,-421.75 213.58,-421.75"/>
<text text-anchor="middle" x="120.12" y="-404.45" font-family="Arial" font-size="14.00" fill="#cfffac">public/front/build/kube/style.css</text>
</g>
<!-- public/js/script.js -->
<g id="node17" class="node">
<title>public/js/script.js</title>
<path fill="none" stroke="#cfffac" d="M169.33,-463.75C169.33,-463.75 70.92,-463.75 70.92,-463.75 66.96,-463.75 63,-459.79 63,-455.83 63,-455.83 63,-447.92 63,-447.92 63,-443.96 66.96,-440 70.92,-440 70.92,-440 169.33,-440 169.33,-440 173.29,-440 177.25,-443.96 177.25,-447.92 177.25,-447.92 177.25,-455.83 177.25,-455.83 177.25,-459.79 173.29,-463.75 169.33,-463.75"/>
<text text-anchor="middle" x="120.12" y="-446.45" font-family="Arial" font-size="14.00" fill="#cfffac">public/js/script.js</text>
</g>
<!-- styles/tailwind.css -->
<g id="node18" class="node">
<title>styles/tailwind.css</title>
<path fill="none" stroke="#cfffac" d="M173.83,-505.75C173.83,-505.75 66.42,-505.75 66.42,-505.75 62.46,-505.75 58.5,-501.79 58.5,-497.83 58.5,-497.83 58.5,-489.92 58.5,-489.92 58.5,-485.96 62.46,-482 66.42,-482 66.42,-482 173.83,-482 173.83,-482 177.79,-482 181.75,-485.96 181.75,-489.92 181.75,-489.92 181.75,-497.83 181.75,-497.83 181.75,-501.79 177.79,-505.75 173.83,-505.75"/>
<text text-anchor="middle" x="120.12" y="-488.45" font-family="Arial" font-size="14.00" fill="#cfffac">styles/tailwind.css</text>
</g>
</g>
</svg>
