<?xml version="1.0" encoding="UTF-8" standalone="no"?>
<!DOCTYPE svg PUBLIC "-//W3C//DTD SVG 1.1//EN"
 "http://www.w3.org/Graphics/SVG/1.1/DTD/svg11.dtd">
<!-- Generated by graphviz version 8.1.0 (20230707.0739)
 -->
<!-- Title: G Pages: 1 -->
<svg width="675pt" height="445pt"
 viewBox="0.00 0.00 675.45 444.95" xmlns="http://www.w3.org/2000/svg" xmlns:xlink="http://www.w3.org/1999/xlink">
<g id="graph0" class="graph" transform="scale(1 1) rotate(0) translate(21.6 423.35)">
<title>G</title>
<polygon fill="#111111" stroke="none" points="-21.6,21.6 -21.6,-423.35 653.85,-423.35 653.85,21.6 -21.6,21.6"/>
<!-- components/Button/Button.stories.tsx -->
<g id="node1" class="node">
<title>components/Button/Button.stories.tsx</title>
<path fill="none" stroke="#c6c5fe" d="M232.33,-65.75C232.33,-65.75 7.92,-65.75 7.92,-65.75 3.96,-65.75 0,-61.79 0,-57.83 0,-57.83 0,-49.92 0,-49.92 0,-45.96 3.96,-42 7.92,-42 7.92,-42 232.33,-42 232.33,-42 236.29,-42 240.25,-45.96 240.25,-49.92 240.25,-49.92 240.25,-57.83 240.25,-57.83 240.25,-61.79 236.29,-65.75 232.33,-65.75"/>
<text text-anchor="middle" x="120.12" y="-48.45" font-family="Arial" font-size="14.00" fill="#c6c5fe">components/Button/Button.stories.tsx</text>
</g>
<!-- components/Button/Button.tsx -->
<g id="node2" class="node">
<title>components/Button/Button.tsx</title>
<path fill="none" stroke="#cfffac" d="M465.08,-44.75C465.08,-44.75 284.17,-44.75 284.17,-44.75 280.21,-44.75 276.25,-40.79 276.25,-36.83 276.25,-36.83 276.25,-28.92 276.25,-28.92 276.25,-24.96 280.21,-21 284.17,-21 284.17,-21 465.08,-21 465.08,-21 469.04,-21 473,-24.96 473,-28.92 473,-28.92 473,-36.83 473,-36.83 473,-40.79 469.04,-44.75 465.08,-44.75"/>
<text text-anchor="middle" x="374.62" y="-27.45" font-family="Arial" font-size="14.00" fill="#cfffac">components/Button/Button.tsx</text>
</g>
<!-- components/Button/Button.stories.tsx&#45;&gt;components/Button/Button.tsx -->
<g id="edge1" class="edge">
<title>components/Button/Button.stories.tsx&#45;&gt;components/Button/Button.tsx</title>
<path fill="none" stroke="#757575" d="M240.72,-43.93C248.87,-43.25 257.06,-42.57 265.14,-41.9"/>
<polygon fill="#757575" stroke="#757575" points="265.42,-45.3 275.1,-40.99 264.84,-38.33 265.42,-45.3"/>
</g>
<!-- components/Tooltip/Tooltip.tsx -->
<g id="node3" class="node">
<title>components/Tooltip/Tooltip.tsx</title>
<path fill="none" stroke="#cfffac" d="M210.58,-107.75C210.58,-107.75 29.67,-107.75 29.67,-107.75 25.71,-107.75 21.75,-103.79 21.75,-99.83 21.75,-99.83 21.75,-91.92 21.75,-91.92 21.75,-87.96 25.71,-84 29.67,-84 29.67,-84 210.58,-84 210.58,-84 214.54,-84 218.5,-87.96 218.5,-91.92 218.5,-91.92 218.5,-99.83 218.5,-99.83 218.5,-103.79 214.54,-107.75 210.58,-107.75"/>
<text text-anchor="middle" x="120.12" y="-90.45" font-family="Arial" font-size="14.00" fill="#cfffac">components/Tooltip/Tooltip.tsx</text>
</g>
<!-- lp&#45;items.tsx -->
<g id="node4" class="node">
<title>lp&#45;items.tsx</title>
<path fill="none" stroke="#cfffac" d="M154.71,-149.75C154.71,-149.75 85.54,-149.75 85.54,-149.75 81.58,-149.75 77.62,-145.79 77.62,-141.83 77.62,-141.83 77.62,-133.92 77.62,-133.92 77.62,-129.96 81.58,-126 85.54,-126 85.54,-126 154.71,-126 154.71,-126 158.67,-126 162.62,-129.96 162.62,-133.92 162.62,-133.92 162.62,-141.83 162.62,-141.83 162.62,-145.79 158.67,-149.75 154.71,-149.75"/>
<text text-anchor="middle" x="120.12" y="-132.45" font-family="Arial" font-size="14.00" fill="#cfffac">lp&#45;items.tsx</text>
</g>
<!-- material/NavHeader/index.tsx -->
<g id="node5" class="node">
<title>material/NavHeader/index.tsx</title>
<path fill="none" stroke="#cfffac" d="M209.08,-191.75C209.08,-191.75 31.17,-191.75 31.17,-191.75 27.21,-191.75 23.25,-187.79 23.25,-183.83 23.25,-183.83 23.25,-175.92 23.25,-175.92 23.25,-171.96 27.21,-168 31.17,-168 31.17,-168 209.08,-168 209.08,-168 213.04,-168 217,-171.96 217,-175.92 217,-175.92 217,-183.83 217,-183.83 217,-187.79 213.04,-191.75 209.08,-191.75"/>
<text text-anchor="middle" x="120.12" y="-174.45" font-family="Arial" font-size="14.00" fill="#cfffac">material/NavHeader/index.tsx</text>
</g>
<!-- pages/_app.test.tsx -->
<g id="node6" class="node">
<title>pages/_app.test.tsx</title>
<path fill="none" stroke="#c6c5fe" d="M178.71,-233.75C178.71,-233.75 61.54,-233.75 61.54,-233.75 57.58,-233.75 53.62,-229.79 53.62,-225.83 53.62,-225.83 53.62,-217.92 53.62,-217.92 53.62,-213.96 57.58,-210 61.54,-210 61.54,-210 178.71,-210 178.71,-210 182.67,-210 186.62,-213.96 186.62,-217.92 186.62,-217.92 186.62,-225.83 186.62,-225.83 186.62,-229.79 182.67,-233.75 178.71,-233.75"/>
<text text-anchor="middle" x="120.12" y="-216.45" font-family="Arial" font-size="14.00" fill="#c6c5fe">pages/_app.test.tsx</text>
</g>
<!-- pages/_app.tsx -->
<g id="node7" class="node">
<title>pages/_app.tsx</title>
<path fill="none" stroke="#c6c5fe" d="M420.46,-233.75C420.46,-233.75 328.79,-233.75 328.79,-233.75 324.83,-233.75 320.88,-229.79 320.88,-225.83 320.88,-225.83 320.88,-217.92 320.88,-217.92 320.88,-213.96 324.83,-210 328.79,-210 328.79,-210 420.46,-210 420.46,-210 424.42,-210 428.38,-213.96 428.38,-217.92 428.38,-217.92 428.38,-225.83 428.38,-225.83 428.38,-229.79 424.42,-233.75 420.46,-233.75"/>
<text text-anchor="middle" x="374.62" y="-216.45" font-family="Arial" font-size="14.00" fill="#c6c5fe">pages/_app.tsx</text>
</g>
<!-- pages/_app.test.tsx&#45;&gt;pages/_app.tsx -->
<g id="edge2" class="edge">
<title>pages/_app.test.tsx&#45;&gt;pages/_app.tsx</title>
<path fill="none" stroke="#757575" d="M186.81,-221.88C224.71,-221.88 272.16,-221.88 309.75,-221.88"/>
<polygon fill="#757575" stroke="#757575" points="309.58,-225.38 319.58,-221.88 309.58,-218.38 309.58,-225.38"/>
</g>
<!-- styles/tailwind.css -->
<g id="node8" class="node">
<title>styles/tailwind.css</title>
<path fill="none" stroke="#cfffac" d="M624.33,-233.75C624.33,-233.75 516.92,-233.75 516.92,-233.75 512.96,-233.75 509,-229.79 509,-225.83 509,-225.83 509,-217.92 509,-217.92 509,-213.96 512.96,-210 516.92,-210 516.92,-210 624.33,-210 624.33,-210 628.29,-210 632.25,-213.96 632.25,-217.92 632.25,-217.92 632.25,-225.83 632.25,-225.83 632.25,-229.79 628.29,-233.75 624.33,-233.75"/>
<text text-anchor="middle" x="570.62" y="-216.45" font-family="Arial" font-size="14.00" fill="#cfffac">styles/tailwind.css</text>
</g>
<!-- pages/_app.tsx&#45;&gt;styles/tailwind.css -->
<g id="edge3" class="edge">
<title>pages/_app.tsx&#45;&gt;styles/tailwind.css</title>
<path fill="none" stroke="#757575" d="M428.64,-221.88C450.04,-221.88 475.07,-221.88 498.05,-221.88"/>
<polygon fill="#757575" stroke="#757575" points="497.79,-225.38 507.79,-221.88 497.79,-218.38 497.79,-225.38"/>
</g>
<!-- pages/api/health.ts -->
<g id="node9" class="node">
<title>pages/api/health.ts</title>
<path fill="none" stroke="#cfffac" d="M176.83,-275.75C176.83,-275.75 63.42,-275.75 63.42,-275.75 59.46,-275.75 55.5,-271.79 55.5,-267.83 55.5,-267.83 55.5,-259.92 55.5,-259.92 55.5,-255.96 59.46,-252 63.42,-252 63.42,-252 176.83,-252 176.83,-252 180.79,-252 184.75,-255.96 184.75,-259.92 184.75,-259.92 184.75,-267.83 184.75,-267.83 184.75,-271.79 180.79,-275.75 176.83,-275.75"/>
<text text-anchor="middle" x="120.12" y="-258.45" font-family="Arial" font-size="14.00" fill="#cfffac">pages/api/health.ts</text>
</g>
<!-- pages/index.tsx -->
<g id="node10" class="node">
<title>pages/index.tsx</title>
<path fill="none" stroke="#cfffac" d="M167.08,-317.75C167.08,-317.75 73.17,-317.75 73.17,-317.75 69.21,-317.75 65.25,-313.79 65.25,-309.83 65.25,-309.83 65.25,-301.92 65.25,-301.92 65.25,-297.96 69.21,-294 73.17,-294 73.17,-294 167.08,-294 167.08,-294 171.04,-294 175,-297.96 175,-301.92 175,-301.92 175,-309.83 175,-309.83 175,-313.79 171.04,-317.75 167.08,-317.75"/>
<text text-anchor="middle" x="120.12" y="-300.45" font-family="Arial" font-size="14.00" fill="#cfffac">pages/index.tsx</text>
</g>
<!-- pages/landing&#45;page/index.tsx -->
<g id="node11" class="node">
<title>pages/landing&#45;page/index.tsx</title>
<path fill="none" stroke="#c6c5fe" d="M207.96,-23.75C207.96,-23.75 32.29,-23.75 32.29,-23.75 28.33,-23.75 24.38,-19.79 24.38,-15.83 24.38,-15.83 24.38,-7.92 24.38,-7.92 24.38,-3.96 28.33,0 32.29,0 32.29,0 207.96,0 207.96,0 211.92,0 215.88,-3.96 215.88,-7.92 215.88,-7.92 215.88,-15.83 215.88,-15.83 215.88,-19.79 211.92,-23.75 207.96,-23.75"/>
<text text-anchor="middle" x="120.12" y="-6.45" font-family="Arial" font-size="14.00" fill="#c6c5fe">pages/landing&#45;page/index.tsx</text>
</g>
<!-- pages/landing&#45;page/index.tsx&#45;&gt;components/Button/Button.tsx -->
<g id="edge4" class="edge">
<title>pages/landing&#45;page/index.tsx&#45;&gt;components/Button/Button.tsx</title>
<path fill="none" stroke="#757575" d="M216.22,-19.78C232.28,-21.12 249.05,-22.51 265.41,-23.87"/>
<polygon fill="#757575" stroke="#757575" points="264.83,-27.42 275.09,-24.76 265.41,-20.45 264.83,-27.42"/>
</g>
<!-- public/front/build/kube/style.css -->
<g id="node12" class="node">
<title>public/front/build/kube/style.css</title>
<path fill="none" stroke="#cfffac" d="M213.58,-359.75C213.58,-359.75 26.67,-359.75 26.67,-359.75 22.71,-359.75 18.75,-355.79 18.75,-351.83 18.75,-351.83 18.75,-343.92 18.75,-343.92 18.75,-339.96 22.71,-336 26.67,-336 26.67,-336 213.58,-336 213.58,-336 217.54,-336 221.5,-339.96 221.5,-343.92 221.5,-343.92 221.5,-351.83 221.5,-351.83 221.5,-355.79 217.54,-359.75 213.58,-359.75"/>
<text text-anchor="middle" x="120.12" y="-342.45" font-family="Arial" font-size="14.00" fill="#cfffac">public/front/build/kube/style.css</text>
</g>
<!-- public/js/script.js -->
<g id="node13" class="node">
<title>public/js/script.js</title>
<path fill="none" stroke="#cfffac" d="M169.33,-401.75C169.33,-401.75 70.92,-401.75 70.92,-401.75 66.96,-401.75 63,-397.79 63,-393.83 63,-393.83 63,-385.92 63,-385.92 63,-381.96 66.96,-378 70.92,-378 70.92,-378 169.33,-378 169.33,-378 173.29,-378 177.25,-381.96 177.25,-385.92 177.25,-385.92 177.25,-393.83 177.25,-393.83 177.25,-397.79 173.29,-401.75 169.33,-401.75"/>
<text text-anchor="middle" x="120.12" y="-384.45" font-family="Arial" font-size="14.00" fill="#cfffac">public/js/script.js</text>
</g>
</g>
</svg>
