<?xml version="1.0" encoding="UTF-8" standalone="no"?>
<!DOCTYPE svg PUBLIC "-//W3C//DTD SVG 1.1//EN"
 "http://www.w3.org/Graphics/SVG/1.1/DTD/svg11.dtd">
<!-- Generated by graphviz version 8.1.0 (20230707.0739)
 -->
<!-- Title: G Pages: 1 -->
<svg width="1491pt" height="981pt"
 viewBox="0.00 0.00 1491.20 980.95" xmlns="http://www.w3.org/2000/svg" xmlns:xlink="http://www.w3.org/1999/xlink">
<g id="graph0" class="graph" transform="scale(1 1) rotate(0) translate(21.6 959.35)">
<title>G</title>
<polygon fill="#111111" stroke="none" points="-21.6,21.6 -21.6,-959.35 1469.6,-959.35 1469.6,21.6 -21.6,21.6"/>
<!-- app/DashboardMain.tsx -->
<g id="node1" class="node">
<title>app/DashboardMain.tsx</title>
<path fill="none" stroke="#cfffac" d="M198.96,-59.75C198.96,-59.75 55.54,-59.75 55.54,-59.75 51.58,-59.75 47.62,-55.79 47.62,-51.83 47.62,-51.83 47.62,-43.92 47.62,-43.92 47.62,-39.96 51.58,-36 55.54,-36 55.54,-36 198.96,-36 198.96,-36 202.92,-36 206.88,-39.96 206.88,-43.92 206.88,-43.92 206.88,-51.83 206.88,-51.83 206.88,-55.79 202.92,-59.75 198.96,-59.75"/>
<text text-anchor="middle" x="127.25" y="-42.45" font-family="Arial" font-size="14.00" fill="#cfffac">app/DashboardMain.tsx</text>
</g>
<!-- app/LandingPageFooter.tsx -->
<g id="node2" class="node">
<title>app/LandingPageFooter.tsx</title>
<path fill="none" stroke="#cfffac" d="M502.21,-143.75C502.21,-143.75 337.04,-143.75 337.04,-143.75 333.08,-143.75 329.12,-139.79 329.12,-135.83 329.12,-135.83 329.12,-127.92 329.12,-127.92 329.12,-123.96 333.08,-120 337.04,-120 337.04,-120 502.21,-120 502.21,-120 506.17,-120 510.12,-123.96 510.12,-127.92 510.12,-127.92 510.12,-135.83 510.12,-135.83 510.12,-139.79 506.17,-143.75 502.21,-143.75"/>
<text text-anchor="middle" x="419.62" y="-126.45" font-family="Arial" font-size="14.00" fill="#cfffac">app/LandingPageFooter.tsx</text>
</g>
<!-- app/LandingPageMain.tsx -->
<g id="node3" class="node">
<title>app/LandingPageMain.tsx</title>
<path fill="none" stroke="#cfffac" d="M498.08,-101.75C498.08,-101.75 341.17,-101.75 341.17,-101.75 337.21,-101.75 333.25,-97.79 333.25,-93.83 333.25,-93.83 333.25,-85.92 333.25,-85.92 333.25,-81.96 337.21,-78 341.17,-78 341.17,-78 498.08,-78 498.08,-78 502.04,-78 506,-81.96 506,-85.92 506,-85.92 506,-93.83 506,-93.83 506,-97.79 502.04,-101.75 498.08,-101.75"/>
<text text-anchor="middle" x="419.62" y="-84.45" font-family="Arial" font-size="14.00" fill="#cfffac">app/LandingPageMain.tsx</text>
</g>
<!-- app/api/health.ts -->
<g id="node4" class="node">
<title>app/api/health.ts</title>
<path fill="none" stroke="#cfffac" d="M176.83,-143.75C176.83,-143.75 77.67,-143.75 77.67,-143.75 73.71,-143.75 69.75,-139.79 69.75,-135.83 69.75,-135.83 69.75,-127.92 69.75,-127.92 69.75,-123.96 73.71,-120 77.67,-120 77.67,-120 176.83,-120 176.83,-120 180.79,-120 184.75,-123.96 184.75,-127.92 184.75,-127.92 184.75,-135.83 184.75,-135.83 184.75,-139.79 180.79,-143.75 176.83,-143.75"/>
<text text-anchor="middle" x="127.25" y="-126.45" font-family="Arial" font-size="14.00" fill="#cfffac">app/api/health.ts</text>
</g>
<!-- app/datasets/ContentLayout/DatasetCard.tsx -->
<g id="node5" class="node">
<title>app/datasets/ContentLayout/DatasetCard.tsx</title>
<path fill="none" stroke="#c6c5fe" d="M1246.71,-424.75C1246.71,-424.75 977.29,-424.75 977.29,-424.75 973.33,-424.75 969.38,-420.79 969.38,-416.83 969.38,-416.83 969.38,-408.92 969.38,-408.92 969.38,-404.96 973.33,-401 977.29,-401 977.29,-401 1246.71,-401 1246.71,-401 1250.67,-401 1254.62,-404.96 1254.62,-408.92 1254.62,-408.92 1254.62,-416.83 1254.62,-416.83 1254.62,-420.79 1250.67,-424.75 1246.71,-424.75"/>
<text text-anchor="middle" x="1112" y="-407.45" font-family="Arial" font-size="14.00" fill="#c6c5fe">app/datasets/ContentLayout/DatasetCard.tsx</text>
</g>
<!-- app/datasets/type.ts -->
<g id="node6" class="node">
<title>app/datasets/type.ts</title>
<path fill="none" stroke="#cfffac" d="M1440.08,-277.75C1440.08,-277.75 1319.17,-277.75 1319.17,-277.75 1315.21,-277.75 1311.25,-273.79 1311.25,-269.83 1311.25,-269.83 1311.25,-261.92 1311.25,-261.92 1311.25,-257.96 1315.21,-254 1319.17,-254 1319.17,-254 1440.08,-254 1440.08,-254 1444.04,-254 1448,-257.96 1448,-261.92 1448,-261.92 1448,-269.83 1448,-269.83 1448,-273.79 1444.04,-277.75 1440.08,-277.75"/>
<text text-anchor="middle" x="1379.62" y="-260.45" font-family="Arial" font-size="14.00" fill="#cfffac">app/datasets/type.ts</text>
</g>
<!-- app/datasets/ContentLayout/DatasetCard.tsx&#45;&gt;app/datasets/type.ts -->
<g id="edge1" class="edge">
<title>app/datasets/ContentLayout/DatasetCard.tsx&#45;&gt;app/datasets/type.ts</title>
<path fill="none" stroke="#757575" d="M1254.93,-401.15C1261.97,-398.53 1268.79,-395.46 1275.25,-391.88 1318.89,-367.68 1351.46,-317.03 1367.5,-287.85"/>
<polygon fill="#757575" stroke="#757575" points="1371.05,-289.64 1372.66,-279.16 1364.87,-286.35 1371.05,-289.64"/>
</g>
<!-- app/datasets/ContentLayout/DatasetsHeader.tsx -->
<g id="node7" class="node">
<title>app/datasets/ContentLayout/DatasetsHeader.tsx</title>
<path fill="none" stroke="#cfffac" d="M1257.21,-382.75C1257.21,-382.75 966.79,-382.75 966.79,-382.75 962.83,-382.75 958.88,-378.79 958.88,-374.83 958.88,-374.83 958.88,-366.92 958.88,-366.92 958.88,-362.96 962.83,-359 966.79,-359 966.79,-359 1257.21,-359 1257.21,-359 1261.17,-359 1265.12,-362.96 1265.12,-366.92 1265.12,-366.92 1265.12,-374.83 1265.12,-374.83 1265.12,-378.79 1261.17,-382.75 1257.21,-382.75"/>
<text text-anchor="middle" x="1112" y="-365.45" font-family="Arial" font-size="14.00" fill="#cfffac">app/datasets/ContentLayout/DatasetsHeader.tsx</text>
</g>
<!-- app/datasets/ContentLayout/DatasetsList.tsx -->
<g id="node8" class="node">
<title>app/datasets/ContentLayout/DatasetsList.tsx</title>
<path fill="none" stroke="#c6c5fe" d="M882.71,-393.75C882.71,-393.75 614.79,-393.75 614.79,-393.75 610.83,-393.75 606.88,-389.79 606.88,-385.83 606.88,-385.83 606.88,-377.92 606.88,-377.92 606.88,-373.96 610.83,-370 614.79,-370 614.79,-370 882.71,-370 882.71,-370 886.67,-370 890.62,-373.96 890.62,-377.92 890.62,-377.92 890.62,-385.83 890.62,-385.83 890.62,-389.79 886.67,-393.75 882.71,-393.75"/>
<text text-anchor="middle" x="748.75" y="-376.45" font-family="Arial" font-size="14.00" fill="#c6c5fe">app/datasets/ContentLayout/DatasetsList.tsx</text>
</g>
<!-- app/datasets/ContentLayout/DatasetsList.tsx&#45;&gt;app/datasets/ContentLayout/DatasetCard.tsx -->
<g id="edge2" class="edge">
<title>app/datasets/ContentLayout/DatasetsList.tsx&#45;&gt;app/datasets/ContentLayout/DatasetCard.tsx</title>
<path fill="none" stroke="#757575" d="M890.97,-393.99C912.99,-395.88 935.84,-397.84 958.11,-399.75"/>
<polygon fill="#757575" stroke="#757575" points="957.72,-403.32 967.99,-400.69 958.32,-396.35 957.72,-403.32"/>
</g>
<!-- app/datasets/ContentLayout/DatasetsList.tsx&#45;&gt;app/datasets/ContentLayout/DatasetsHeader.tsx -->
<g id="edge3" class="edge">
<title>app/datasets/ContentLayout/DatasetsList.tsx&#45;&gt;app/datasets/ContentLayout/DatasetsHeader.tsx</title>
<path fill="none" stroke="#757575" d="M890.97,-377.57C909.58,-377.01 928.79,-376.42 947.73,-375.85"/>
<polygon fill="#757575" stroke="#757575" points="947.64,-379.32 957.53,-375.52 947.43,-372.32 947.64,-379.32"/>
</g>
<!-- app/datasets/ContentLayout/DatasetsPagination.tsx -->
<g id="node9" class="node">
<title>app/datasets/ContentLayout/DatasetsPagination.tsx</title>
<path fill="none" stroke="#cfffac" d="M1267.33,-340.75C1267.33,-340.75 956.67,-340.75 956.67,-340.75 952.71,-340.75 948.75,-336.79 948.75,-332.83 948.75,-332.83 948.75,-324.92 948.75,-324.92 948.75,-320.96 952.71,-317 956.67,-317 956.67,-317 1267.33,-317 1267.33,-317 1271.29,-317 1275.25,-320.96 1275.25,-324.92 1275.25,-324.92 1275.25,-332.83 1275.25,-332.83 1275.25,-336.79 1271.29,-340.75 1267.33,-340.75"/>
<text text-anchor="middle" x="1112" y="-323.45" font-family="Arial" font-size="14.00" fill="#cfffac">app/datasets/ContentLayout/DatasetsPagination.tsx</text>
</g>
<!-- app/datasets/ContentLayout/DatasetsList.tsx&#45;&gt;app/datasets/ContentLayout/DatasetsPagination.tsx -->
<g id="edge4" class="edge">
<title>app/datasets/ContentLayout/DatasetsList.tsx&#45;&gt;app/datasets/ContentLayout/DatasetsPagination.tsx</title>
<path fill="none" stroke="#757575" d="M864.6,-369.55C880.84,-367.09 897.27,-364.21 912.75,-360.88 929.1,-357.35 932.4,-353.41 948.75,-349.88 960.79,-347.28 973.4,-344.96 986.05,-342.89"/>
<polygon fill="#757575" stroke="#757575" points="986.34,-346.23 995.68,-341.22 985.25,-339.32 986.34,-346.23"/>
</g>
<!-- app/datasets/const.ts -->
<g id="node10" class="node">
<title>app/datasets/const.ts</title>
<path fill="none" stroke="#c6c5fe" d="M1175.83,-277.75C1175.83,-277.75 1048.17,-277.75 1048.17,-277.75 1044.21,-277.75 1040.25,-273.79 1040.25,-269.83 1040.25,-269.83 1040.25,-261.92 1040.25,-261.92 1040.25,-257.96 1044.21,-254 1048.17,-254 1048.17,-254 1175.83,-254 1175.83,-254 1179.79,-254 1183.75,-257.96 1183.75,-261.92 1183.75,-261.92 1183.75,-269.83 1183.75,-269.83 1183.75,-273.79 1179.79,-277.75 1175.83,-277.75"/>
<text text-anchor="middle" x="1112" y="-260.45" font-family="Arial" font-size="14.00" fill="#c6c5fe">app/datasets/const.ts</text>
</g>
<!-- app/datasets/ContentLayout/DatasetsList.tsx&#45;&gt;app/datasets/const.ts -->
<g id="edge5" class="edge">
<title>app/datasets/ContentLayout/DatasetsList.tsx&#45;&gt;app/datasets/const.ts</title>
<path fill="none" stroke="#757575" d="M890.73,-371.69C898.42,-368.7 905.82,-365.13 912.75,-360.88 937.01,-345.96 925.47,-324.27 948.75,-307.88 972.37,-291.23 1002.09,-281.18 1029.61,-275.11"/>
<polygon fill="#757575" stroke="#757575" points="1029.94,-278.41 1039.03,-272.98 1028.53,-271.56 1029.94,-278.41"/>
</g>
<!-- app/datasets/const.ts&#45;&gt;app/datasets/type.ts -->
<g id="edge21" class="edge">
<title>app/datasets/const.ts&#45;&gt;app/datasets/type.ts</title>
<path fill="none" stroke="#757575" d="M1184.18,-265.88C1219.99,-265.88 1263.47,-265.88 1300.23,-265.88"/>
<polygon fill="#757575" stroke="#757575" points="1299.91,-269.38 1309.91,-265.88 1299.91,-262.38 1299.91,-269.38"/>
</g>
<!-- app/datasets/ContentLayout/index.tsx -->
<g id="node11" class="node">
<title>app/datasets/ContentLayout/index.tsx</title>
<path fill="none" stroke="#c6c5fe" d="M532.58,-393.75C532.58,-393.75 306.67,-393.75 306.67,-393.75 302.71,-393.75 298.75,-389.79 298.75,-385.83 298.75,-385.83 298.75,-377.92 298.75,-377.92 298.75,-373.96 302.71,-370 306.67,-370 306.67,-370 532.58,-370 532.58,-370 536.54,-370 540.5,-373.96 540.5,-377.92 540.5,-377.92 540.5,-385.83 540.5,-385.83 540.5,-389.79 536.54,-393.75 532.58,-393.75"/>
<text text-anchor="middle" x="419.62" y="-376.45" font-family="Arial" font-size="14.00" fill="#c6c5fe">app/datasets/ContentLayout/index.tsx</text>
</g>
<!-- app/datasets/ContentLayout/index.tsx&#45;&gt;app/datasets/ContentLayout/DatasetsList.tsx -->
<g id="edge6" class="edge">
<title>app/datasets/ContentLayout/index.tsx&#45;&gt;app/datasets/ContentLayout/DatasetsList.tsx</title>
<path fill="none" stroke="#757575" d="M540.58,-381.88C558.49,-381.88 577.15,-381.88 595.62,-381.88"/>
<polygon fill="#757575" stroke="#757575" points="595.46,-385.38 605.46,-381.88 595.46,-378.38 595.46,-385.38"/>
</g>
<!-- app/datasets/TabsLayout/FilterTab.tsx -->
<g id="node12" class="node">
<title>app/datasets/TabsLayout/FilterTab.tsx</title>
<path fill="none" stroke="#cfffac" d="M862.08,-107.75C862.08,-107.75 635.42,-107.75 635.42,-107.75 631.46,-107.75 627.5,-103.79 627.5,-99.83 627.5,-99.83 627.5,-91.92 627.5,-91.92 627.5,-87.96 631.46,-84 635.42,-84 635.42,-84 862.08,-84 862.08,-84 866.04,-84 870,-87.96 870,-91.92 870,-91.92 870,-99.83 870,-99.83 870,-103.79 866.04,-107.75 862.08,-107.75"/>
<text text-anchor="middle" x="748.75" y="-90.45" font-family="Arial" font-size="14.00" fill="#cfffac">app/datasets/TabsLayout/FilterTab.tsx</text>
</g>
<!-- app/datasets/TabsLayout/TabLanguages.tsx -->
<g id="node13" class="node">
<title>app/datasets/TabsLayout/TabLanguages.tsx</title>
<path fill="none" stroke="#c6c5fe" d="M880.46,-351.75C880.46,-351.75 617.04,-351.75 617.04,-351.75 613.08,-351.75 609.12,-347.79 609.12,-343.83 609.12,-343.83 609.12,-335.92 609.12,-335.92 609.12,-331.96 613.08,-328 617.04,-328 617.04,-328 880.46,-328 880.46,-328 884.42,-328 888.38,-331.96 888.38,-335.92 888.38,-335.92 888.38,-343.83 888.38,-343.83 888.38,-347.79 884.42,-351.75 880.46,-351.75"/>
<text text-anchor="middle" x="748.75" y="-334.45" font-family="Arial" font-size="14.00" fill="#c6c5fe">app/datasets/TabsLayout/TabLanguages.tsx</text>
</g>
<!-- app/datasets/TabsLayout/TabLanguages.tsx&#45;&gt;app/datasets/const.ts -->
<g id="edge7" class="edge">
<title>app/datasets/TabsLayout/TabLanguages.tsx&#45;&gt;app/datasets/const.ts</title>
<path fill="none" stroke="#757575" d="M864.6,-327.55C880.84,-325.09 897.27,-322.21 912.75,-318.88 929.1,-315.35 932.65,-312.42 948.75,-307.88 982.32,-298.41 1020.02,-288.6 1050.63,-280.84"/>
<polygon fill="#757575" stroke="#757575" points="1051.3,-284.03 1060.14,-278.19 1049.59,-277.24 1051.3,-284.03"/>
</g>
<!-- app/datasets/TabsLayout/TabLicenses.tsx -->
<g id="node14" class="node">
<title>app/datasets/TabsLayout/TabLicenses.tsx</title>
<path fill="none" stroke="#c6c5fe" d="M873.71,-309.75C873.71,-309.75 623.79,-309.75 623.79,-309.75 619.83,-309.75 615.88,-305.79 615.88,-301.83 615.88,-301.83 615.88,-293.92 615.88,-293.92 615.88,-289.96 619.83,-286 623.79,-286 623.79,-286 873.71,-286 873.71,-286 877.67,-286 881.62,-289.96 881.62,-293.92 881.62,-293.92 881.62,-301.83 881.62,-301.83 881.62,-305.79 877.67,-309.75 873.71,-309.75"/>
<text text-anchor="middle" x="748.75" y="-292.45" font-family="Arial" font-size="14.00" fill="#c6c5fe">app/datasets/TabsLayout/TabLicenses.tsx</text>
</g>
<!-- app/datasets/TabsLayout/TabLicenses.tsx&#45;&gt;app/datasets/const.ts -->
<g id="edge8" class="edge">
<title>app/datasets/TabsLayout/TabLicenses.tsx&#45;&gt;app/datasets/const.ts</title>
<path fill="none" stroke="#757575" d="M881.96,-286.16C931.18,-281.8 985.57,-276.99 1029,-273.14"/>
<polygon fill="#757575" stroke="#757575" points="1029.14,-276.55 1038.79,-272.18 1028.52,-269.58 1029.14,-276.55"/>
</g>
<!-- app/datasets/TabsLayout/TabOther.tsx -->
<g id="node15" class="node">
<title>app/datasets/TabsLayout/TabOther.tsx</title>
<path fill="none" stroke="#c6c5fe" d="M863.96,-267.75C863.96,-267.75 633.54,-267.75 633.54,-267.75 629.58,-267.75 625.62,-263.79 625.62,-259.83 625.62,-259.83 625.62,-251.92 625.62,-251.92 625.62,-247.96 629.58,-244 633.54,-244 633.54,-244 863.96,-244 863.96,-244 867.92,-244 871.88,-247.96 871.88,-251.92 871.88,-251.92 871.88,-259.83 871.88,-259.83 871.88,-263.79 867.92,-267.75 863.96,-267.75"/>
<text text-anchor="middle" x="748.75" y="-250.45" font-family="Arial" font-size="14.00" fill="#c6c5fe">app/datasets/TabsLayout/TabOther.tsx</text>
</g>
<!-- app/datasets/TabsLayout/TabOther.tsx&#45;&gt;app/datasets/const.ts -->
<g id="edge9" class="edge">
<title>app/datasets/TabsLayout/TabOther.tsx&#45;&gt;app/datasets/const.ts</title>
<path fill="none" stroke="#757575" d="M872.3,-259.27C923.92,-260.7 982.63,-262.32 1028.9,-263.6"/>
<polygon fill="#757575" stroke="#757575" points="1028.68,-267.13 1038.78,-263.9 1028.88,-260.13 1028.68,-267.13"/>
</g>
<!-- app/datasets/TabsLayout/TabSizes.tsx -->
<g id="node16" class="node">
<title>app/datasets/TabsLayout/TabSizes.tsx</title>
<path fill="none" stroke="#cfffac" d="M863.58,-65.75C863.58,-65.75 633.92,-65.75 633.92,-65.75 629.96,-65.75 626,-61.79 626,-57.83 626,-57.83 626,-49.92 626,-49.92 626,-45.96 629.96,-42 633.92,-42 633.92,-42 863.58,-42 863.58,-42 867.54,-42 871.5,-45.96 871.5,-49.92 871.5,-49.92 871.5,-57.83 871.5,-57.83 871.5,-61.79 867.54,-65.75 863.58,-65.75"/>
<text text-anchor="middle" x="748.75" y="-48.45" font-family="Arial" font-size="14.00" fill="#cfffac">app/datasets/TabsLayout/TabSizes.tsx</text>
</g>
<!-- app/datasets/TabsLayout/TabSubTasks.tsx -->
<g id="node17" class="node">
<title>app/datasets/TabsLayout/TabSubTasks.tsx</title>
<path fill="none" stroke="#c6c5fe" d="M876.33,-225.75C876.33,-225.75 621.17,-225.75 621.17,-225.75 617.21,-225.75 613.25,-221.79 613.25,-217.83 613.25,-217.83 613.25,-209.92 613.25,-209.92 613.25,-205.96 617.21,-202 621.17,-202 621.17,-202 876.33,-202 876.33,-202 880.29,-202 884.25,-205.96 884.25,-209.92 884.25,-209.92 884.25,-217.83 884.25,-217.83 884.25,-221.79 880.29,-225.75 876.33,-225.75"/>
<text text-anchor="middle" x="748.75" y="-208.45" font-family="Arial" font-size="14.00" fill="#c6c5fe">app/datasets/TabsLayout/TabSubTasks.tsx</text>
</g>
<!-- app/datasets/TabsLayout/TabSubTasks.tsx&#45;&gt;app/datasets/const.ts -->
<g id="edge10" class="edge">
<title>app/datasets/TabsLayout/TabSubTasks.tsx&#45;&gt;app/datasets/const.ts</title>
<path fill="none" stroke="#757575" d="M848.94,-226.22C870.02,-228.96 892.13,-231.94 912.75,-234.88 951.04,-240.33 993.4,-246.89 1029.1,-252.56"/>
<polygon fill="#757575" stroke="#757575" points="1028.53,-256.17 1038.96,-254.29 1029.63,-249.26 1028.53,-256.17"/>
</g>
<!-- app/datasets/TabsLayout/TabTasks.tsx -->
<g id="node18" class="node">
<title>app/datasets/TabsLayout/TabTasks.tsx</title>
<path fill="none" stroke="#c6c5fe" d="M864.33,-23.75C864.33,-23.75 633.17,-23.75 633.17,-23.75 629.21,-23.75 625.25,-19.79 625.25,-15.83 625.25,-15.83 625.25,-7.92 625.25,-7.92 625.25,-3.96 629.21,0 633.17,0 633.17,0 864.33,0 864.33,0 868.29,0 872.25,-3.96 872.25,-7.92 872.25,-7.92 872.25,-15.83 872.25,-15.83 872.25,-19.79 868.29,-23.75 864.33,-23.75"/>
<text text-anchor="middle" x="748.75" y="-6.45" font-family="Arial" font-size="14.00" fill="#c6c5fe">app/datasets/TabsLayout/TabTasks.tsx</text>
</g>
<!-- ui/svgs/tasks.tsx -->
<g id="node19" class="node">
<title>ui/svgs/tasks.tsx</title>
<path fill="none" stroke="#cfffac" d="M1161.21,-23.75C1161.21,-23.75 1062.79,-23.75 1062.79,-23.75 1058.83,-23.75 1054.88,-19.79 1054.88,-15.83 1054.88,-15.83 1054.88,-7.92 1054.88,-7.92 1054.88,-3.96 1058.83,0 1062.79,0 1062.79,0 1161.21,0 1161.21,0 1165.17,0 1169.12,-3.96 1169.12,-7.92 1169.12,-7.92 1169.12,-15.83 1169.12,-15.83 1169.12,-19.79 1165.17,-23.75 1161.21,-23.75"/>
<text text-anchor="middle" x="1112" y="-6.45" font-family="Arial" font-size="14.00" fill="#cfffac">ui/svgs/tasks.tsx</text>
</g>
<!-- app/datasets/TabsLayout/TabTasks.tsx&#45;&gt;ui/svgs/tasks.tsx -->
<g id="edge11" class="edge">
<title>app/datasets/TabsLayout/TabTasks.tsx&#45;&gt;ui/svgs/tasks.tsx</title>
<path fill="none" stroke="#757575" d="M872.56,-11.88C929.87,-11.88 995.85,-11.88 1043.86,-11.88"/>
<polygon fill="#757575" stroke="#757575" points="1043.74,-15.38 1053.74,-11.88 1043.74,-8.38 1043.74,-15.38"/>
</g>
<!-- app/datasets/TabsLayout/index.client.tsx -->
<g id="node20" class="node">
<title>app/datasets/TabsLayout/index.client.tsx</title>
<path fill="none" stroke="#c6c5fe" d="M540.83,-185.75C540.83,-185.75 298.42,-185.75 298.42,-185.75 294.46,-185.75 290.5,-181.79 290.5,-177.83 290.5,-177.83 290.5,-169.92 290.5,-169.92 290.5,-165.96 294.46,-162 298.42,-162 298.42,-162 540.83,-162 540.83,-162 544.79,-162 548.75,-165.96 548.75,-169.92 548.75,-169.92 548.75,-177.83 548.75,-177.83 548.75,-181.79 544.79,-185.75 540.83,-185.75"/>
<text text-anchor="middle" x="419.62" y="-168.45" font-family="Arial" font-size="14.00" fill="#c6c5fe">app/datasets/TabsLayout/index.client.tsx</text>
</g>
<!-- app/datasets/TabsLayout/index.client.tsx&#45;&gt;app/datasets/type.ts -->
<g id="edge20" class="edge">
<title>app/datasets/TabsLayout/index.client.tsx&#45;&gt;app/datasets/type.ts</title>
<path fill="none" stroke="#757575" d="M549.16,-165.29C561.19,-164.72 573.19,-164.23 584.75,-163.88 730.46,-159.44 767.82,-148.19 912.75,-163.88 1065.1,-180.36 1240.68,-226.32 1326.26,-250.52"/>
<polygon fill="#757575" stroke="#757575" points="1325.16,-254.14 1335.73,-253.51 1327.07,-247.4 1325.16,-254.14"/>
</g>
<!-- app/datasets/TabsLayout/index.client.tsx&#45;&gt;app/datasets/const.ts -->
<g id="edge19" class="edge">
<title>app/datasets/TabsLayout/index.client.tsx&#45;&gt;app/datasets/const.ts</title>
<path fill="none" stroke="#757575" d="M549.11,-167.9C649.16,-165.87 791.03,-168.75 912.75,-192.88 971.87,-204.59 1036.77,-231.34 1075.68,-249"/>
<polygon fill="#757575" stroke="#757575" points="1073.91,-252.5 1084.46,-253.5 1076.84,-246.14 1073.91,-252.5"/>
</g>
<!-- app/datasets/TabsLayout/index.client.tsx&#45;&gt;app/datasets/TabsLayout/FilterTab.tsx -->
<g id="edge12" class="edge">
<title>app/datasets/TabsLayout/index.client.tsx&#45;&gt;app/datasets/TabsLayout/FilterTab.tsx</title>
<path fill="none" stroke="#757575" d="M525.9,-161.51C533.8,-159.11 541.5,-156.26 548.75,-152.88 567.88,-143.94 565.6,-130.76 584.75,-121.88 594.8,-117.21 605.52,-113.36 616.5,-110.19"/>
<polygon fill="#757575" stroke="#757575" points="617.33,-113.33 626.08,-107.35 615.52,-106.56 617.33,-113.33"/>
</g>
<!-- app/datasets/TabsLayout/index.client.tsx&#45;&gt;app/datasets/TabsLayout/TabLanguages.tsx -->
<g id="edge13" class="edge">
<title>app/datasets/TabsLayout/index.client.tsx&#45;&gt;app/datasets/TabsLayout/TabLanguages.tsx</title>
<path fill="none" stroke="#757575" d="M429.78,-185.85C452.44,-214.5 514.46,-286.99 584.75,-318.88 589.18,-320.89 593.75,-322.72 598.41,-324.4"/>
<polygon fill="#757575" stroke="#757575" points="597.15,-328 607.75,-327.81 599.35,-321.35 597.15,-328"/>
</g>
<!-- app/datasets/TabsLayout/index.client.tsx&#45;&gt;app/datasets/TabsLayout/TabLicenses.tsx -->
<g id="edge14" class="edge">
<title>app/datasets/TabsLayout/index.client.tsx&#45;&gt;app/datasets/TabsLayout/TabLicenses.tsx</title>
<path fill="none" stroke="#757575" d="M435.3,-186.23C462.68,-208.53 524.27,-255.19 584.75,-276.88 591.43,-279.27 598.34,-281.4 605.39,-283.29"/>
<polygon fill="#757575" stroke="#757575" points="604.25,-286.86 614.8,-285.89 605.95,-280.07 604.25,-286.86"/>
</g>
<!-- app/datasets/TabsLayout/index.client.tsx&#45;&gt;app/datasets/TabsLayout/TabOther.tsx -->
<g id="edge15" class="edge">
<title>app/datasets/TabsLayout/index.client.tsx&#45;&gt;app/datasets/TabsLayout/TabOther.tsx</title>
<path fill="none" stroke="#757575" d="M447.9,-186.21C479.98,-200.19 535.17,-222.64 584.75,-234.88 595.14,-237.44 605.99,-239.7 616.93,-241.7"/>
<polygon fill="#757575" stroke="#757575" points="615.99,-245.26 626.44,-243.53 617.19,-238.37 615.99,-245.26"/>
</g>
<!-- app/datasets/TabsLayout/index.client.tsx&#45;&gt;app/datasets/TabsLayout/TabSizes.tsx -->
<g id="edge16" class="edge">
<title>app/datasets/TabsLayout/index.client.tsx&#45;&gt;app/datasets/TabsLayout/TabSizes.tsx</title>
<path fill="none" stroke="#757575" d="M534.67,-161.62C539.63,-159.12 544.36,-156.22 548.75,-152.88 579.14,-129.76 553.97,-97.47 584.75,-74.88 594.08,-68.02 604.55,-62.82 615.56,-58.9"/>
<polygon fill="#757575" stroke="#757575" points="616.33,-62.02 624.81,-55.67 614.22,-55.34 616.33,-62.02"/>
</g>
<!-- app/datasets/TabsLayout/index.client.tsx&#45;&gt;app/datasets/TabsLayout/TabSubTasks.tsx -->
<g id="edge17" class="edge">
<title>app/datasets/TabsLayout/index.client.tsx&#45;&gt;app/datasets/TabsLayout/TabSubTasks.tsx</title>
<path fill="none" stroke="#757575" d="M521.44,-186.2C557.67,-190.63 598.73,-195.65 635.84,-200.19"/>
<polygon fill="#757575" stroke="#757575" points="635.35,-203.78 645.7,-201.52 636.2,-196.83 635.35,-203.78"/>
</g>
<!-- app/datasets/TabsLayout/index.client.tsx&#45;&gt;app/datasets/TabsLayout/TabTasks.tsx -->
<g id="edge18" class="edge">
<title>app/datasets/TabsLayout/index.client.tsx&#45;&gt;app/datasets/TabsLayout/TabTasks.tsx</title>
<path fill="none" stroke="#757575" d="M536.74,-161.52C540.99,-159.01 545.02,-156.15 548.75,-152.88 590.58,-116.12 542.3,-68.9 584.75,-32.88 593.66,-25.31 603.89,-19.63 614.8,-15.43"/>
<polygon fill="#757575" stroke="#757575" points="615.64,-18.5 623.98,-11.97 613.38,-11.87 615.64,-18.5"/>
</g>
<!-- app/datasets/page.tsx -->
<g id="node21" class="node">
<title>app/datasets/page.tsx</title>
<path fill="none" stroke="#c6c5fe" d="M193.33,-185.75C193.33,-185.75 61.17,-185.75 61.17,-185.75 57.21,-185.75 53.25,-181.79 53.25,-177.83 53.25,-177.83 53.25,-169.92 53.25,-169.92 53.25,-165.96 57.21,-162 61.17,-162 61.17,-162 193.33,-162 193.33,-162 197.29,-162 201.25,-165.96 201.25,-169.92 201.25,-169.92 201.25,-177.83 201.25,-177.83 201.25,-181.79 197.29,-185.75 193.33,-185.75"/>
<text text-anchor="middle" x="127.25" y="-168.45" font-family="Arial" font-size="14.00" fill="#c6c5fe">app/datasets/page.tsx</text>
</g>
<!-- app/datasets/page.tsx&#45;&gt;app/datasets/TabsLayout/index.client.tsx -->
<g id="edge22" class="edge">
<title>app/datasets/page.tsx&#45;&gt;app/datasets/TabsLayout/index.client.tsx</title>
<path fill="none" stroke="#757575" d="M201.52,-173.88C225.33,-173.88 252.59,-173.88 279.56,-173.88"/>
<polygon fill="#757575" stroke="#757575" points="279.28,-177.38 289.28,-173.88 279.28,-170.38 279.28,-177.38"/>
</g>
<!-- app/layout.tsx -->
<g id="node22" class="node">
<title>app/layout.tsx</title>
<path fill="none" stroke="#c6c5fe" d="M168.96,-559.75C168.96,-559.75 85.54,-559.75 85.54,-559.75 81.58,-559.75 77.62,-555.79 77.62,-551.83 77.62,-551.83 77.62,-543.92 77.62,-543.92 77.62,-539.96 81.58,-536 85.54,-536 85.54,-536 168.96,-536 168.96,-536 172.92,-536 176.88,-539.96 176.88,-543.92 176.88,-543.92 176.88,-551.83 176.88,-551.83 176.88,-555.79 172.92,-559.75 168.96,-559.75"/>
<text text-anchor="middle" x="127.25" y="-542.45" font-family="Arial" font-size="14.00" fill="#c6c5fe">app/layout.tsx</text>
</g>
<!-- styles/global&#45;stylesheet.css -->
<g id="node23" class="node">
<title>styles/global&#45;stylesheet.css</title>
<path fill="none" stroke="#cfffac" d="M501.46,-622.75C501.46,-622.75 337.79,-622.75 337.79,-622.75 333.83,-622.75 329.88,-618.79 329.88,-614.83 329.88,-614.83 329.88,-606.92 329.88,-606.92 329.88,-602.96 333.83,-599 337.79,-599 337.79,-599 501.46,-599 501.46,-599 505.42,-599 509.38,-602.96 509.38,-606.92 509.38,-606.92 509.38,-614.83 509.38,-614.83 509.38,-618.79 505.42,-622.75 501.46,-622.75"/>
<text text-anchor="middle" x="419.62" y="-605.45" font-family="Arial" font-size="14.00" fill="#cfffac">styles/global&#45;stylesheet.css</text>
</g>
<!-- app/layout.tsx&#45;&gt;styles/global&#45;stylesheet.css -->
<g id="edge23" class="edge">
<title>app/layout.tsx&#45;&gt;styles/global&#45;stylesheet.css</title>
<path fill="none" stroke="#757575" d="M177.26,-551.84C201.09,-554.81 229.84,-559.97 254.5,-568.88 271.92,-575.16 273.07,-583.61 290.5,-589.88 299.61,-593.15 309.27,-595.92 319.05,-598.26"/>
<polygon fill="#757575" stroke="#757575" points="318.15,-601.87 328.67,-600.63 319.67,-595.04 318.15,-601.87"/>
</g>
<!-- styles/google&#45;font&#45;IBM&#45;Plex&#45;Mono.css -->
<g id="node24" class="node">
<title>styles/google&#45;font&#45;IBM&#45;Plex&#45;Mono.css</title>
<path fill="none" stroke="#cfffac" d="M534.08,-580.75C534.08,-580.75 305.17,-580.75 305.17,-580.75 301.21,-580.75 297.25,-576.79 297.25,-572.83 297.25,-572.83 297.25,-564.92 297.25,-564.92 297.25,-560.96 301.21,-557 305.17,-557 305.17,-557 534.08,-557 534.08,-557 538.04,-557 542,-560.96 542,-564.92 542,-564.92 542,-572.83 542,-572.83 542,-576.79 538.04,-580.75 534.08,-580.75"/>
<text text-anchor="middle" x="419.62" y="-563.45" font-family="Arial" font-size="14.00" fill="#cfffac">styles/google&#45;font&#45;IBM&#45;Plex&#45;Mono.css</text>
</g>
<!-- app/layout.tsx&#45;&gt;styles/google&#45;font&#45;IBM&#45;Plex&#45;Mono.css -->
<g id="edge24" class="edge">
<title>app/layout.tsx&#45;&gt;styles/google&#45;font&#45;IBM&#45;Plex&#45;Mono.css</title>
<path fill="none" stroke="#757575" d="M177.18,-551.41C207.17,-553.58 247.14,-556.47 285.91,-559.28"/>
<polygon fill="#757575" stroke="#757575" points="285.57,-562.83 295.8,-560.06 286.08,-555.85 285.57,-562.83"/>
</g>
<!-- styles/google&#45;font&#45;Source&#45;Sans&#45;Pro.css -->
<g id="node25" class="node">
<title>styles/google&#45;font&#45;Source&#45;Sans&#45;Pro.css</title>
<path fill="none" stroke="#cfffac" d="M538.58,-538.75C538.58,-538.75 300.67,-538.75 300.67,-538.75 296.71,-538.75 292.75,-534.79 292.75,-530.83 292.75,-530.83 292.75,-522.92 292.75,-522.92 292.75,-518.96 296.71,-515 300.67,-515 300.67,-515 538.58,-515 538.58,-515 542.54,-515 546.5,-518.96 546.5,-522.92 546.5,-522.92 546.5,-530.83 546.5,-530.83 546.5,-534.79 542.54,-538.75 538.58,-538.75"/>
<text text-anchor="middle" x="419.62" y="-521.45" font-family="Arial" font-size="14.00" fill="#cfffac">styles/google&#45;font&#45;Source&#45;Sans&#45;Pro.css</text>
</g>
<!-- app/layout.tsx&#45;&gt;styles/google&#45;font&#45;Source&#45;Sans&#45;Pro.css -->
<g id="edge25" class="edge">
<title>app/layout.tsx&#45;&gt;styles/google&#45;font&#45;Source&#45;Sans&#45;Pro.css</title>
<path fill="none" stroke="#757575" d="M177.18,-544.34C206.14,-542.24 244.39,-539.48 281.89,-536.76"/>
<polygon fill="#757575" stroke="#757575" points="281.72,-540.21 291.44,-536 281.21,-533.23 281.72,-540.21"/>
</g>
<!-- ui/blocks/NavHeader/index.client.tsx -->
<g id="node26" class="node">
<title>ui/blocks/NavHeader/index.client.tsx</title>
<path fill="none" stroke="#c6c5fe" d="M528.08,-496.75C528.08,-496.75 311.17,-496.75 311.17,-496.75 307.21,-496.75 303.25,-492.79 303.25,-488.83 303.25,-488.83 303.25,-480.92 303.25,-480.92 303.25,-476.96 307.21,-473 311.17,-473 311.17,-473 528.08,-473 528.08,-473 532.04,-473 536,-476.96 536,-480.92 536,-480.92 536,-488.83 536,-488.83 536,-492.79 532.04,-496.75 528.08,-496.75"/>
<text text-anchor="middle" x="419.62" y="-479.45" font-family="Arial" font-size="14.00" fill="#c6c5fe">ui/blocks/NavHeader/index.client.tsx</text>
</g>
<!-- app/layout.tsx&#45;&gt;ui/blocks/NavHeader/index.client.tsx -->
<g id="edge26" class="edge">
<title>app/layout.tsx&#45;&gt;ui/blocks/NavHeader/index.client.tsx</title>
<path fill="none" stroke="#757575" d="M171.38,-535.57C203.93,-526.56 249.79,-514.46 290.5,-505.88 301.81,-503.49 313.74,-501.22 325.57,-499.11"/>
<polygon fill="#757575" stroke="#757575" points="326.15,-502.38 335.4,-497.22 324.94,-495.49 326.15,-502.38"/>
</g>
<!-- ui/blocks/NavHeader/AllNavInSmallScreen.client.tsx -->
<g id="node34" class="node">
<title>ui/blocks/NavHeader/AllNavInSmallScreen.client.tsx</title>
<path fill="none" stroke="#cfffac" d="M904.83,-558.75C904.83,-558.75 592.67,-558.75 592.67,-558.75 588.71,-558.75 584.75,-554.79 584.75,-550.83 584.75,-550.83 584.75,-542.92 584.75,-542.92 584.75,-538.96 588.71,-535 592.67,-535 592.67,-535 904.83,-535 904.83,-535 908.79,-535 912.75,-538.96 912.75,-542.92 912.75,-542.92 912.75,-550.83 912.75,-550.83 912.75,-554.79 908.79,-558.75 904.83,-558.75"/>
<text text-anchor="middle" x="748.75" y="-541.45" font-family="Arial" font-size="14.00" fill="#cfffac">ui/blocks/NavHeader/AllNavInSmallScreen.client.tsx</text>
</g>
<!-- ui/blocks/NavHeader/index.client.tsx&#45;&gt;ui/blocks/NavHeader/AllNavInSmallScreen.client.tsx -->
<g id="edge30" class="edge">
<title>ui/blocks/NavHeader/index.client.tsx&#45;&gt;ui/blocks/NavHeader/AllNavInSmallScreen.client.tsx</title>
<path fill="none" stroke="#757575" d="M518.06,-497.21C528.55,-499.61 538.96,-502.47 548.75,-505.88 566.04,-511.89 567.36,-520.16 584.75,-525.88 591.84,-528.21 599.19,-530.28 606.66,-532.13"/>
<polygon fill="#757575" stroke="#757575" points="605.77,-535.74 616.3,-534.59 607.34,-528.92 605.77,-535.74"/>
</g>
<!-- ui/blocks/NavHeader/MoreNav.client.tsx -->
<g id="node35" class="node">
<title>ui/blocks/NavHeader/MoreNav.client.tsx</title>
<path fill="none" stroke="#c6c5fe" d="M868.46,-516.75C868.46,-516.75 629.04,-516.75 629.04,-516.75 625.08,-516.75 621.12,-512.79 621.12,-508.83 621.12,-508.83 621.12,-500.92 621.12,-500.92 621.12,-496.96 625.08,-493 629.04,-493 629.04,-493 868.46,-493 868.46,-493 872.42,-493 876.38,-496.96 876.38,-500.92 876.38,-500.92 876.38,-508.83 876.38,-508.83 876.38,-512.79 872.42,-516.75 868.46,-516.75"/>
<text text-anchor="middle" x="748.75" y="-499.45" font-family="Arial" font-size="14.00" fill="#c6c5fe">ui/blocks/NavHeader/MoreNav.client.tsx</text>
</g>
<!-- ui/blocks/NavHeader/index.client.tsx&#45;&gt;ui/blocks/NavHeader/MoreNav.client.tsx -->
<g id="edge31" class="edge">
<title>ui/blocks/NavHeader/index.client.tsx&#45;&gt;ui/blocks/NavHeader/MoreNav.client.tsx</title>
<path fill="none" stroke="#757575" d="M536.42,-491.95C560.19,-493.41 585.44,-494.95 609.91,-496.45"/>
<polygon fill="#757575" stroke="#757575" points="609.52,-499.99 619.71,-497.11 609.94,-493 609.52,-499.99"/>
</g>
<!-- ui/blocks/NavHeader/constant.tsx -->
<g id="node36" class="node">
<title>ui/blocks/NavHeader/constant.tsx</title>
<path fill="none" stroke="#cfffac" d="M1212.21,-486.75C1212.21,-486.75 1011.79,-486.75 1011.79,-486.75 1007.83,-486.75 1003.88,-482.79 1003.88,-478.83 1003.88,-478.83 1003.88,-470.92 1003.88,-470.92 1003.88,-466.96 1007.83,-463 1011.79,-463 1011.79,-463 1212.21,-463 1212.21,-463 1216.17,-463 1220.12,-466.96 1220.12,-470.92 1220.12,-470.92 1220.12,-478.83 1220.12,-478.83 1220.12,-482.79 1216.17,-486.75 1212.21,-486.75"/>
<text text-anchor="middle" x="1112" y="-469.45" font-family="Arial" font-size="14.00" fill="#cfffac">ui/blocks/NavHeader/constant.tsx</text>
</g>
<!-- ui/blocks/NavHeader/index.client.tsx&#45;&gt;ui/blocks/NavHeader/constant.tsx -->
<g id="edge33" class="edge">
<title>ui/blocks/NavHeader/index.client.tsx&#45;&gt;ui/blocks/NavHeader/constant.tsx</title>
<path fill="none" stroke="#757575" d="M536.18,-483.2C662.81,-481.37 864.89,-478.44 992.62,-476.59"/>
<polygon fill="#757575" stroke="#757575" points="992.65,-480.08 1002.6,-476.43 992.55,-473.08 992.65,-480.08"/>
</g>
<!-- ui/blocks/NavHeader/SearchBar.client.tsx -->
<g id="node37" class="node">
<title>ui/blocks/NavHeader/SearchBar.client.tsx</title>
<path fill="none" stroke="#cfffac" d="M872.58,-436.75C872.58,-436.75 624.92,-436.75 624.92,-436.75 620.96,-436.75 617,-432.79 617,-428.83 617,-428.83 617,-420.92 617,-420.92 617,-416.96 620.96,-413 624.92,-413 624.92,-413 872.58,-413 872.58,-413 876.54,-413 880.5,-416.96 880.5,-420.92 880.5,-420.92 880.5,-428.83 880.5,-428.83 880.5,-432.79 876.54,-436.75 872.58,-436.75"/>
<text text-anchor="middle" x="748.75" y="-419.45" font-family="Arial" font-size="14.00" fill="#cfffac">ui/blocks/NavHeader/SearchBar.client.tsx</text>
</g>
<!-- ui/blocks/NavHeader/index.client.tsx&#45;&gt;ui/blocks/NavHeader/SearchBar.client.tsx -->
<g id="edge32" class="edge">
<title>ui/blocks/NavHeader/index.client.tsx&#45;&gt;ui/blocks/NavHeader/SearchBar.client.tsx</title>
<path fill="none" stroke="#757575" d="M477.09,-472.51C508.68,-465.76 548.83,-457.46 584.75,-450.88 607.38,-446.73 631.85,-442.63 654.77,-438.95"/>
<polygon fill="#757575" stroke="#757575" points="655.21,-442.26 664.54,-437.23 654.11,-435.35 655.21,-442.26"/>
</g>
<!-- app/page.tsx -->
<g id="node27" class="node">
<title>app/page.tsx</title>
<path fill="none" stroke="#c6c5fe" d="M165.96,-101.75C165.96,-101.75 88.54,-101.75 88.54,-101.75 84.58,-101.75 80.62,-97.79 80.62,-93.83 80.62,-93.83 80.62,-85.92 80.62,-85.92 80.62,-81.96 84.58,-78 88.54,-78 88.54,-78 165.96,-78 165.96,-78 169.92,-78 173.88,-81.96 173.88,-85.92 173.88,-85.92 173.88,-93.83 173.88,-93.83 173.88,-97.79 169.92,-101.75 165.96,-101.75"/>
<text text-anchor="middle" x="127.25" y="-84.45" font-family="Arial" font-size="14.00" fill="#c6c5fe">app/page.tsx</text>
</g>
<!-- app/page.tsx&#45;&gt;app/LandingPageFooter.tsx -->
<g id="edge27" class="edge">
<title>app/page.tsx&#45;&gt;app/LandingPageFooter.tsx</title>
<path fill="none" stroke="#757575" d="M174.26,-96.53C213.97,-102.27 272.63,-110.76 322.52,-117.97"/>
<polygon fill="#757575" stroke="#757575" points="321.95,-121.57 332.35,-119.54 322.96,-114.65 321.95,-121.57"/>
</g>
<!-- app/page.tsx&#45;&gt;app/LandingPageMain.tsx -->
<g id="edge28" class="edge">
<title>app/page.tsx&#45;&gt;app/LandingPageMain.tsx</title>
<path fill="none" stroke="#757575" d="M174.26,-89.88C213.82,-89.88 272.19,-89.88 321.96,-89.88"/>
<polygon fill="#757575" stroke="#757575" points="321.77,-93.38 331.76,-89.88 321.76,-86.38 321.77,-93.38"/>
</g>
<!-- app/preload&#45;resources.tsx -->
<g id="node28" class="node">
<title>app/preload&#45;resources.tsx</title>
<path fill="none" stroke="#cfffac" d="M205.33,-601.75C205.33,-601.75 49.17,-601.75 49.17,-601.75 45.21,-601.75 41.25,-597.79 41.25,-593.83 41.25,-593.83 41.25,-585.92 41.25,-585.92 41.25,-581.96 45.21,-578 49.17,-578 49.17,-578 205.33,-578 205.33,-578 209.29,-578 213.25,-581.96 213.25,-585.92 213.25,-585.92 213.25,-593.83 213.25,-593.83 213.25,-597.79 209.29,-601.75 205.33,-601.75"/>
<text text-anchor="middle" x="127.25" y="-584.45" font-family="Arial" font-size="14.00" fill="#cfffac">app/preload&#45;resources.tsx</text>
</g>
<!-- lp&#45;items.tsx -->
<g id="node29" class="node">
<title>lp&#45;items.tsx</title>
<path fill="none" stroke="#cfffac" d="M161.83,-643.75C161.83,-643.75 92.67,-643.75 92.67,-643.75 88.71,-643.75 84.75,-639.79 84.75,-635.83 84.75,-635.83 84.75,-627.92 84.75,-627.92 84.75,-623.96 88.71,-620 92.67,-620 92.67,-620 161.83,-620 161.83,-620 165.79,-620 169.75,-623.96 169.75,-627.92 169.75,-627.92 169.75,-635.83 169.75,-635.83 169.75,-639.79 165.79,-643.75 161.83,-643.75"/>
<text text-anchor="middle" x="127.25" y="-626.45" font-family="Arial" font-size="14.00" fill="#cfffac">lp&#45;items.tsx</text>
</g>
<!-- public/js/script.js -->
<g id="node30" class="node">
<title>public/js/script.js</title>
<path fill="none" stroke="#cfffac" d="M176.46,-685.75C176.46,-685.75 78.04,-685.75 78.04,-685.75 74.08,-685.75 70.12,-681.79 70.12,-677.83 70.12,-677.83 70.12,-669.92 70.12,-669.92 70.12,-665.96 74.08,-662 78.04,-662 78.04,-662 176.46,-662 176.46,-662 180.42,-662 184.38,-665.96 184.38,-669.92 184.38,-669.92 184.38,-677.83 184.38,-677.83 184.38,-681.79 180.42,-685.75 176.46,-685.75"/>
<text text-anchor="middle" x="127.25" y="-668.45" font-family="Arial" font-size="14.00" fill="#cfffac">public/js/script.js</text>
</g>
<!-- styles/katex.min.css -->
<g id="node31" class="node">
<title>styles/katex.min.css</title>
<path fill="none" stroke="#cfffac" d="M187.71,-727.75C187.71,-727.75 66.79,-727.75 66.79,-727.75 62.83,-727.75 58.88,-723.79 58.88,-719.83 58.88,-719.83 58.88,-711.92 58.88,-711.92 58.88,-707.96 62.83,-704 66.79,-704 66.79,-704 187.71,-704 187.71,-704 191.67,-704 195.62,-707.96 195.62,-711.92 195.62,-711.92 195.62,-719.83 195.62,-719.83 195.62,-723.79 191.67,-727.75 187.71,-727.75"/>
<text text-anchor="middle" x="127.25" y="-710.45" font-family="Arial" font-size="14.00" fill="#cfffac">styles/katex.min.css</text>
</g>
<!-- styles/tailwind.css -->
<g id="node32" class="node">
<title>styles/tailwind.css</title>
<path fill="none" stroke="#cfffac" d="M180.96,-769.75C180.96,-769.75 73.54,-769.75 73.54,-769.75 69.58,-769.75 65.62,-765.79 65.62,-761.83 65.62,-761.83 65.62,-753.92 65.62,-753.92 65.62,-749.96 69.58,-746 73.54,-746 73.54,-746 180.96,-746 180.96,-746 184.92,-746 188.88,-749.96 188.88,-753.92 188.88,-753.92 188.88,-761.83 188.88,-761.83 188.88,-765.79 184.92,-769.75 180.96,-769.75"/>
<text text-anchor="middle" x="127.25" y="-752.45" font-family="Arial" font-size="14.00" fill="#cfffac">styles/tailwind.css</text>
</g>
<!-- ui/blocks/NavFooter/index.tsx -->
<g id="node33" class="node">
<title>ui/blocks/NavFooter/index.tsx</title>
<path fill="none" stroke="#cfffac" d="M215.46,-811.75C215.46,-811.75 39.04,-811.75 39.04,-811.75 35.08,-811.75 31.12,-807.79 31.12,-803.83 31.12,-803.83 31.12,-795.92 31.12,-795.92 31.12,-791.96 35.08,-788 39.04,-788 39.04,-788 215.46,-788 215.46,-788 219.42,-788 223.38,-791.96 223.38,-795.92 223.38,-795.92 223.38,-803.83 223.38,-803.83 223.38,-807.79 219.42,-811.75 215.46,-811.75"/>
<text text-anchor="middle" x="127.25" y="-794.45" font-family="Arial" font-size="14.00" fill="#cfffac">ui/blocks/NavFooter/index.tsx</text>
</g>
<!-- ui/blocks/NavHeader/MoreNav.client.tsx&#45;&gt;ui/blocks/NavHeader/constant.tsx -->
<g id="edge29" class="edge">
<title>ui/blocks/NavHeader/MoreNav.client.tsx&#45;&gt;ui/blocks/NavHeader/constant.tsx</title>
<path fill="none" stroke="#757575" d="M876.86,-494.32C914.5,-491.19 955.55,-487.78 992.61,-484.71"/>
<polygon fill="#757575" stroke="#757575" points="992.79,-488.12 1002.46,-483.81 992.21,-481.15 992.79,-488.12"/>
</g>
<!-- ui/components/Button/Button.stories.tsx -->
<g id="node38" class="node">
<title>ui/components/Button/Button.stories.tsx</title>
<path fill="none" stroke="#c6c5fe" d="M246.58,-853.75C246.58,-853.75 7.92,-853.75 7.92,-853.75 3.96,-853.75 0,-849.79 0,-845.83 0,-845.83 0,-837.92 0,-837.92 0,-833.96 3.96,-830 7.92,-830 7.92,-830 246.58,-830 246.58,-830 250.54,-830 254.5,-833.96 254.5,-837.92 254.5,-837.92 254.5,-845.83 254.5,-845.83 254.5,-849.79 250.54,-853.75 246.58,-853.75"/>
<text text-anchor="middle" x="127.25" y="-836.45" font-family="Arial" font-size="14.00" fill="#c6c5fe">ui/components/Button/Button.stories.tsx</text>
</g>
<!-- ui/components/Button/Button.tsx -->
<g id="node39" class="node">
<title>ui/components/Button/Button.tsx</title>
<path fill="none" stroke="#cfffac" d="M517.21,-853.75C517.21,-853.75 322.04,-853.75 322.04,-853.75 318.08,-853.75 314.12,-849.79 314.12,-845.83 314.12,-845.83 314.12,-837.92 314.12,-837.92 314.12,-833.96 318.08,-830 322.04,-830 322.04,-830 517.21,-830 517.21,-830 521.17,-830 525.12,-833.96 525.12,-837.92 525.12,-837.92 525.12,-845.83 525.12,-845.83 525.12,-849.79 521.17,-853.75 517.21,-853.75"/>
<text text-anchor="middle" x="419.62" y="-836.45" font-family="Arial" font-size="14.00" fill="#cfffac">ui/components/Button/Button.tsx</text>
</g>
<!-- ui/components/Button/Button.stories.tsx&#45;&gt;ui/components/Button/Button.tsx -->
<g id="edge34" class="edge">
<title>ui/components/Button/Button.stories.tsx&#45;&gt;ui/components/Button/Button.tsx</title>
<path fill="none" stroke="#757575" d="M254.77,-841.88C270.79,-841.88 287.11,-841.88 302.95,-841.88"/>
<polygon fill="#757575" stroke="#757575" points="302.83,-845.38 312.83,-841.88 302.83,-838.38 302.83,-845.38"/>
</g>
<!-- ui/components/Tooltip/Tooltip.tsx -->
<g id="node40" class="node">
<title>ui/components/Tooltip/Tooltip.tsx</title>
<path fill="none" stroke="#cfffac" d="M224.83,-895.75C224.83,-895.75 29.67,-895.75 29.67,-895.75 25.71,-895.75 21.75,-891.79 21.75,-887.83 21.75,-887.83 21.75,-879.92 21.75,-879.92 21.75,-875.96 25.71,-872 29.67,-872 29.67,-872 224.83,-872 224.83,-872 228.79,-872 232.75,-875.96 232.75,-879.92 232.75,-879.92 232.75,-887.83 232.75,-887.83 232.75,-891.79 228.79,-895.75 224.83,-895.75"/>
<text text-anchor="middle" x="127.25" y="-878.45" font-family="Arial" font-size="14.00" fill="#cfffac">ui/components/Tooltip/Tooltip.tsx</text>
</g>
<!-- ui/svgs/index.tsx -->
<g id="node41" class="node">
<title>ui/svgs/index.tsx</title>
<path fill="none" stroke="#cfffac" d="M176.83,-937.75C176.83,-937.75 77.67,-937.75 77.67,-937.75 73.71,-937.75 69.75,-933.79 69.75,-929.83 69.75,-929.83 69.75,-921.92 69.75,-921.92 69.75,-917.96 73.71,-914 77.67,-914 77.67,-914 176.83,-914 176.83,-914 180.79,-914 184.75,-917.96 184.75,-921.92 184.75,-921.92 184.75,-929.83 184.75,-929.83 184.75,-933.79 180.79,-937.75 176.83,-937.75"/>
<text text-anchor="middle" x="127.25" y="-920.45" font-family="Arial" font-size="14.00" fill="#cfffac">ui/svgs/index.tsx</text>
</g>
</g>
</svg>
